<svg width="27" height="27" viewBox="0 0 27 27" fill="none" xmlns="http://www.w3.org/2000/svg">
<path d="M10.3837 24.0605H20.2219C21.1292 24.0605 21.9053 23.5139 22.2333 22.7269L25.5345 15.0203C25.6329 14.7689 25.6876 14.5065 25.6876 14.2223V12.0361C25.6876 10.8336 24.7037 9.8498 23.5013 9.8498H16.6036L17.6421 4.85419L17.6749 4.50438C17.6749 4.0562 17.4891 3.64081 17.1939 3.34566L16.0352 2.19788L8.83147 9.40161C8.43795 9.79514 8.19746 10.3417 8.19746 10.9429V21.8742C8.19746 23.0767 9.18128 24.0605 10.3837 24.0605ZM10.3837 10.9429L15.1279 6.19874L13.6631 12.0361H23.5013V14.2223L20.2219 21.8742H10.3837V10.9429ZM1.63867 10.9429H6.0112V24.0605H1.63867V10.9429Z" fill="#42307D"/>
</svg>
