<svg width="148" height="40" viewBox="0 0 148 40" fill="none" xmlns="http://www.w3.org/2000/svg">
<path d="M21.8418 1.27522C21.5874 1.701 22.4779 6.73295 22.902 7.19744C23.2836 7.58451 24.3014 1.81712 23.9621 1.27522C23.6229 0.772026 22.1811 0.772026 21.8418 1.27522Z" fill="#F4F4F4"/>
<path d="M13.6992 2.32023C12.7238 2.62988 13.1479 3.98464 14.9289 6.30708C15.9043 7.58442 16.7524 8.59081 16.7948 8.51339C16.8372 8.47469 16.5828 7.15864 16.1587 5.57164C15.4378 2.82342 14.8017 1.97186 13.6992 2.32023Z" fill="#F4F4F4"/>
<path d="M30.1096 4.44913C29.8552 5.3781 29.4735 6.69415 29.2615 7.42959C29.0494 8.16503 28.9222 8.86176 29.007 8.93917C29.0918 9.01659 29.9824 8.0102 30.9153 6.73286C32.9508 4.02335 33.1629 2.82342 31.5938 2.82342C30.7457 2.82342 30.4913 3.09437 30.1096 4.44913Z" fill="#F4F4F4"/>
<path d="M6.23435 6.96525C6.06472 7.08138 5.9375 7.58457 5.9375 8.01035C5.97991 8.59096 6.78563 9.28769 8.94837 10.4489C12.1713 12.2294 12.1713 12.1907 9.45725 8.90062C7.71858 6.84913 6.91285 6.34594 6.23435 6.96525Z" fill="#F4F4F4"/>
<path d="M18.6603 13.2357C15.2254 14.2034 12.1297 16.9129 11.6632 19.3901C11.2816 21.5578 12.0449 23.7254 13.6564 25.1575C15.4374 26.6671 16.2007 27.0155 21.3319 28.6025C26.6328 30.2282 27.5657 30.7701 27.5657 32.2023C27.5657 34.215 26.2935 34.7569 21.6712 34.7569C17.9818 34.7569 17.3457 34.6408 14.7589 33.5183L11.8753 32.2797V34.9505C11.8753 37.5439 11.9177 37.66 13.1475 38.2406C15.1406 39.1696 19.4661 39.9824 22.689 39.9824C27.4385 39.9824 30.9158 38.1632 32.4425 34.8731C33.7147 32.0861 33.0362 29.1831 30.5766 27.0542C29.8557 26.4349 27.4385 25.3898 24.258 24.3447C18.3635 22.448 16.9641 21.7126 16.9641 20.5901C16.9641 17.2612 22.2649 16.6032 30.4494 18.8869C31.4247 19.1579 31.4247 19.1192 31.2975 16.5258L31.1703 13.8937L28.6259 13.3905C25.827 12.8873 20.3142 12.7712 18.6603 13.2357Z" fill="#F4F4F4"/>
<path d="M1.44282 14.2419C0.933942 15.3645 1.61245 15.9064 3.9024 16.1386C5.13219 16.2934 6.74364 16.487 7.42215 16.6031L8.69435 16.7966L7.33734 16.0225C5.38663 14.9 2.67261 13.6613 2.12133 13.6613C1.86689 13.6613 1.57004 13.9323 1.44282 14.2419Z" fill="#F4F4F4"/>
<path d="M98.5546 15.4806C97.7913 17.6869 97.0279 18.7707 95.8406 19.1578C94.6956 19.5061 94.5684 19.6997 94.5684 21.248C94.5684 22.9511 94.5684 22.9511 96.0526 22.9511H97.5368V29.2217C97.5368 36.1503 97.8761 37.4276 100.208 38.9759C101.438 39.8275 104.958 40.0597 107.418 39.4791C108.478 39.2081 108.563 39.0533 108.563 37.3115V35.4535L106.273 35.6471C102.88 35.8793 102.626 35.4148 102.626 28.4862V22.9511H109.411H116.196V21.2092V19.4674L114.203 19.4287C113.058 19.39 110.004 19.39 107.418 19.4674L102.626 19.5448V17.1837V14.8225H100.717C99.2331 14.8225 98.7242 14.9774 98.5546 15.4806Z" fill="#F4F4F4"/>
<path d="M36.4707 16.758V17.9193H39.0151H41.5595V19.932V21.9835L42.3652 20.8997C43.7646 18.9257 46.0122 17.8031 48.6838 17.6483C51.9067 17.4548 53.6878 18.3063 55.0024 20.6288C55.5113 21.5965 55.9777 22.1771 55.9777 21.9061C55.9777 21.0546 58.2677 18.9644 60.0064 18.2676C63.2717 16.9129 67.0034 17.6096 68.8693 19.9708C69.675 20.9771 69.7599 21.6739 69.8871 29.5702L70.0143 38.0471H67.2579H64.5014L64.3742 31.041L64.247 24.035L63.0172 23.0673C60.8545 21.4029 57.8436 22.3706 56.5714 25.1575C56.1474 26.0478 55.9777 28.1767 55.9777 32.241V38.0471H53.2213H50.4649L50.4225 31.9313C50.4225 25.1962 49.9984 23.4931 48.2597 22.6028C47.242 22.0609 46.9027 22.0609 45.3337 22.5641C42.3652 23.5318 41.8139 25.0027 41.6443 32.1248L41.4747 38.0471H38.9727C36.5979 38.0471 36.4707 38.0858 36.4707 39.0147V39.9824H64.6711H92.8714V39.0147C92.8714 38.0858 92.7866 38.0471 90.115 38.0471H87.3586V36.5762C87.3162 35.4537 87.2314 35.2988 86.9345 35.802C85.7471 37.66 81.2096 38.8212 78.1564 38.0858C73.4068 36.9245 71.1593 32.1248 73.4916 27.9832C74.6366 25.893 76.5025 24.693 79.0893 24.3447C81.3369 24.035 84.5598 24.3834 86.2136 25.1575C87.3586 25.6994 87.401 25.6994 87.1042 24.6156C86.5529 22.5254 85.3655 21.79 82.5242 21.79C81.0824 21.8287 78.8773 22.0609 77.5203 22.3319C75.1879 22.8351 75.1455 22.8351 74.8911 22.0222C74.7638 21.5965 74.6366 20.5514 74.6366 19.7772C74.6366 18.3838 74.6366 18.345 76.969 17.9193C80.5311 17.2225 87.401 17.3387 88.97 18.0741C90.4967 18.8095 91.8113 20.3578 92.3626 22.1771C92.7442 23.2996 92.7866 22.8738 92.829 19.545L92.8714 15.5968H64.6711H36.4707V16.758Z" fill="#F4F4F4"/>
<path d="M143.548 19.6613C142.615 19.971 141.215 20.8612 140.494 21.6354L139.095 23.0676V21.287V19.4678H136.338H133.582L133.667 29.4156L133.794 39.402L136.466 39.5182L139.095 39.6343V34.4862C139.095 28.4479 139.519 26.7448 141.427 25.0029C142.699 23.8417 143.039 23.7256 145.413 23.7256H148V21.4031V19.0807H146.643C145.88 19.1194 144.481 19.3517 143.548 19.6613Z" fill="#F4F4F4"/>
<path d="M125.1 25.1577C125.1 33.5959 124.421 34.9507 120.308 34.9507C118.696 34.9507 118.06 34.7571 117.255 33.983C116.279 33.1314 116.194 32.7831 116.194 29.1446V25.2738H113.438H110.682V29.4155C110.682 34.0991 111.191 36.2667 112.505 37.5828C115.262 40.331 120.647 40.6406 123.828 38.2021L125.1 37.1957V38.3956V39.5955H127.644H130.189V29.5316V19.4677H127.644H125.1V25.1577Z" fill="#F4F4F4"/>
<path d="M0.298542 22.0611C-0.210337 22.4868 -0.0407103 23.6481 0.595388 23.8416C0.892234 23.9577 2.54609 23.6868 4.24235 23.2223C6.53231 22.6417 7.126 22.332 6.53231 22.1385C5.51455 21.7514 0.680201 21.7127 0.298542 22.0611Z" fill="#F4F4F4"/>
<path d="M79.089 29.338C77.9864 30.3057 77.8592 30.6928 78.2833 32.1636C78.8346 33.9829 83.0752 34.8344 85.6196 33.5958C87.019 32.9378 87.3583 32.3185 87.3583 30.3057C87.3583 28.5252 87.019 28.3703 83.0752 28.3703C80.4884 28.3703 79.9796 28.4865 79.089 29.338Z" fill="#F4F4F4"/>
</svg>
