<svg width="27" height="27" viewBox="0 0 27 27" fill="none" xmlns="http://www.w3.org/2000/svg">
<path d="M12.6101 13.5122C13.4518 11.9928 15.0696 11.0964 16.0097 9.75184C17.0045 8.34171 16.447 5.70726 13.6267 5.70726C11.7793 5.70726 10.872 7.10647 10.4894 8.26519L7.6582 7.07367C8.43433 4.7453 10.5441 2.74487 13.6158 2.74487C16.1846 2.74487 17.9446 3.91452 18.8409 5.37932C19.6061 6.63642 20.0543 8.98665 18.8737 10.7357C17.562 12.6705 16.3049 13.2608 15.6271 14.507C15.3538 15.0098 15.2445 15.3377 15.2445 16.9556H12.0854C12.0745 16.1029 11.9433 14.7147 12.6101 13.5122ZM15.813 21.3281C15.813 22.5306 14.8291 23.5144 13.6267 23.5144C12.4243 23.5144 11.4404 22.5306 11.4404 21.3281C11.4404 20.1257 12.4243 19.1418 13.6267 19.1418C14.8291 19.1418 15.813 20.1257 15.813 21.3281Z" fill="#42307D"/>
</svg>
