<svg width="27" height="27" viewBox="0 0 27 27" fill="none" xmlns="http://www.w3.org/2000/svg">
<path d="M20.1509 17.6334C19.3201 17.6334 18.5768 17.9613 18.0083 18.4751L10.2143 13.9386C10.269 13.6871 10.3127 13.4357 10.3127 13.1734C10.3127 12.911 10.269 12.6596 10.2143 12.4082L17.9209 7.91542C18.5112 8.46198 19.2873 8.80085 20.1509 8.80085C21.9655 8.80085 23.4303 7.33606 23.4303 5.52146C23.4303 3.70686 21.9655 2.24207 20.1509 2.24207C18.3363 2.24207 16.8715 3.70686 16.8715 5.52146C16.8715 5.78381 16.9152 6.03523 16.9699 6.28665L9.26329 10.7794C8.673 10.2329 7.89687 9.89398 7.0333 9.89398C5.2187 9.89398 3.75391 11.3588 3.75391 13.1734C3.75391 14.988 5.2187 16.4528 7.0333 16.4528C7.89687 16.4528 8.673 16.1139 9.26329 15.5673L17.0464 20.1148C16.9917 20.3443 16.9589 20.5848 16.9589 20.8253C16.9589 22.5852 18.3909 24.0172 20.1509 24.0172C21.9108 24.0172 23.3428 22.5852 23.3428 20.8253C23.3428 19.0654 21.9108 17.6334 20.1509 17.6334ZM20.1509 4.42833C20.7521 4.42833 21.244 4.92024 21.244 5.52146C21.244 6.12268 20.7521 6.61459 20.1509 6.61459C19.5497 6.61459 19.0577 6.12268 19.0577 5.52146C19.0577 4.92024 19.5497 4.42833 20.1509 4.42833ZM7.0333 14.2665C6.43208 14.2665 5.94017 13.7746 5.94017 13.1734C5.94017 12.5722 6.43208 12.0802 7.0333 12.0802C7.63452 12.0802 8.12643 12.5722 8.12643 13.1734C8.12643 13.7746 7.63452 14.2665 7.0333 14.2665ZM20.1509 21.9403C19.5497 21.9403 19.0577 21.4484 19.0577 20.8472C19.0577 20.2459 19.5497 19.754 20.1509 19.754C20.7521 19.754 21.244 20.2459 21.244 20.8472C21.244 21.4484 20.7521 21.9403 20.1509 21.9403Z" fill="#42307D"/>
</svg>
