<svg width="169" height="159" viewBox="0 0 169 159" fill="none" xmlns="http://www.w3.org/2000/svg">
<g opacity="0.4">
<path d="M48.7267 29.49L65.9219 18.9815L59.5534 8.47339L48.7267 29.49Z" fill="black"/>
<path d="M32.3432 26.8764L34.6895 3.57769L20.4369 2.26929L32.3432 26.8764Z" fill="black"/>
<path d="M20.7031 36.7913L5.33743 23.2548L0.581251 30.9376L20.7031 36.7913Z" fill="black"/>
<path d="M57.0997 33.8685L69.0938 30.3862V34.6421L57.0997 33.8685Z" fill="black"/>
<path d="M15.7012 43.9282L2.93344 45.4755L6.80213 50.5055L15.7012 43.9282Z" fill="black"/>
<path d="M42.0114 24.5826L47.041 11.8149L42.0114 8.33301V24.5826Z" fill="black"/>
<path d="M26.1465 28.8389L18.7955 17.2317L16.0873 20.7139L26.1465 28.8389Z" fill="black"/>
</g>
<path opacity="0.4" d="M38.0835 45.3301H168.139L149.72 133.662H89.2033L94.0897 158.095L52.3668 132.911L38.0835 45.3301Z" fill="black"/>
<path d="M34.7002 40.8195H164.756L146.338 129.152H85.8205L90.7069 153.584L48.984 128.4L34.7002 40.8195Z" fill="#07285B"/>
<path d="M32.6948 38.1884H162.75L144.332 126.521H83.8146L88.7011 150.953L46.9782 122.637L32.6948 38.1884Z" fill="#42307D"/>
<path d="M40.2949 42.8987L69.8165 43.3252L84.4731 43.5324L99.0567 43.6924C108.764 43.7838 118.461 43.9261 128.123 43.9586L142.621 44.0263L157.116 44.0239L155.94 42.584L147.968 82.4337L144.05 102.372L140.209 122.327L140.826 121.823L125.273 121.99C120.089 122.054 114.905 122.068 109.721 122.095C104.537 122.106 99.3525 122.123 94.1682 122.099C88.9839 122.097 83.8 122.043 78.6157 122.003L78.0654 121.999L78.1756 122.548L82.2347 142.71L83.3471 141.966L75.3303 136.294C72.657 134.405 69.9905 132.507 67.3027 130.639C64.6178 128.767 61.9424 126.88 59.2443 125.027L51.1606 119.453L51.5887 120.15L48.9266 100.985C48.0086 94.5921 47.1003 88.1993 46.1414 81.7783L43.256 62.4457L40.2949 42.8987ZM40.1249 42.7504L42.3525 61.9334L44.6558 81.331C45.4267 87.8201 46.248 94.3372 47.0598 100.855L49.5868 120.419L49.6441 120.862L50.0153 121.117L58.107 126.68C60.8008 128.539 63.5174 130.365 66.224 132.205C68.9282 134.05 71.6532 135.863 74.3718 137.687L82.5305 143.152L84.0453 144.167L83.6429 142.407L79.0571 122.359L78.6173 122.903C83.8012 122.863 88.9855 122.81 94.1698 122.807C99.3537 122.783 104.538 122.801 109.722 122.811C114.907 122.838 120.091 122.852 125.275 122.916L140.827 123.083L141.334 123.088L141.444 122.579L145.748 102.719L149.975 82.8434L158.293 43.0646L158.594 41.6248L157.117 41.6244L142.386 41.6219L127.658 41.6897C117.835 41.7222 108.047 41.8649 98.2706 41.9559L83.6281 42.1158L69.0581 42.3231L40.1249 42.7504Z" fill="#07285B"/>
<path opacity="0.4" d="M18.9429 50.7595C18.9545 50.2861 18.9842 49.8155 19.0311 49.3489C19.078 48.8823 19.1417 48.4197 19.2223 47.9619C19.4235 46.8174 19.7294 45.7023 20.1302 44.6288C20.2906 44.1994 20.4662 43.7765 20.6566 43.3612C20.942 42.7383 21.2607 42.1318 21.6106 41.545C21.8439 41.1537 22.0908 40.7709 22.3514 40.3973C22.4817 40.2105 22.6152 40.0261 22.7522 39.8441C23.026 39.4801 23.3127 39.1262 23.6121 38.7822C24.0109 38.3241 24.4322 37.8843 24.8744 37.4654C25.0957 37.2558 25.3217 37.0513 25.553 36.8525C26.2473 36.2552 26.9869 35.7065 27.7678 35.2118C28.028 35.047 28.2929 34.8883 28.5623 34.7356C29.37 34.2778 30.2178 33.8765 31.1009 33.5378C32.2782 33.086 33.5185 32.7457 34.8109 32.5317C35.1079 32.4824 35.4041 32.4423 35.7004 32.407C35.7938 32.3958 35.8872 32.3878 35.9806 32.3781C36.1854 32.3569 36.3898 32.338 36.5939 32.3236C36.6997 32.316 36.8055 32.3096 36.911 32.304C37.1086 32.2932 37.3058 32.2859 37.5026 32.2815C37.6024 32.2791 37.7023 32.2759 37.8017 32.2755C37.8474 32.2751 37.8939 32.2727 37.9396 32.2727C38.1761 32.2727 38.4118 32.2771 38.6471 32.2859C39.9074 32.3328 41.1436 32.506 42.3422 32.7938C42.6416 32.866 42.9391 32.9449 43.2337 33.0311C43.7428 33.1802 44.2427 33.3542 44.7349 33.5442C45.0973 33.6841 45.4565 33.8308 45.8088 33.9924C46.0858 34.1191 46.3592 34.2525 46.6294 34.3924C46.8995 34.5323 47.1661 34.6783 47.4287 34.831C47.9386 35.1264 48.4324 35.4479 48.9123 35.789C49.36 36.1073 49.7961 36.4428 50.215 36.7988C50.3886 36.9463 50.5598 37.097 50.7277 37.251C51.0645 37.5584 51.39 37.8783 51.7046 38.2098C52.176 38.7073 52.6218 39.2312 53.0387 39.7796C53.2716 40.0862 53.4937 40.4021 53.7085 40.724C53.7979 40.8579 53.8853 40.9934 53.9715 41.1297C54.2369 41.5502 54.4862 41.9823 54.7191 42.426C54.8269 42.6309 54.9307 42.8381 55.031 43.0478C55.1099 43.2129 55.1873 43.3793 55.2618 43.5468C55.5184 44.1257 55.7501 44.7198 55.9497 45.3307C56.246 46.2366 56.4776 47.1766 56.6384 48.1459C56.7346 48.7251 56.7963 49.3024 56.8368 49.8776C56.8585 50.1738 56.8601 50.4669 56.8681 50.7611C56.8733 51.0012 56.8821 51.2413 56.8777 51.4802C56.8729 51.9324 56.8468 52.3798 56.81 52.8259C56.8084 52.8419 56.8076 52.858 56.806 52.874C56.6809 54.3403 56.3806 55.7658 55.9337 57.1319C55.8732 57.3171 55.809 57.5011 55.7429 57.6839C55.5188 58.3028 55.2695 58.9109 54.9837 59.5006C54.8181 59.8421 54.6425 60.1784 54.4569 60.5096C54.2713 60.8403 54.0761 61.1654 53.8713 61.4844C53.5378 62.0833 53.2211 62.6922 52.9212 63.3083C52.7938 63.5709 52.6695 63.8347 52.5488 64.1C52.3833 64.4648 52.2221 64.8316 52.0714 65.2024C51.6577 66.221 51.3038 67.26 51.0276 68.3183C50.8893 68.8474 50.7706 69.3814 50.6736 69.9197C50.4307 71.2658 50.3225 72.6403 50.3834 74.0401C50.4043 74.5196 50.4131 74.9942 50.4087 75.4684C50.4043 75.9426 50.3866 76.4168 50.3541 76.8954L42.5414 78.1918L42.3887 78.2171L50.3076 76.9031L50.642 78.9182L50.7049 78.9077C51.0645 78.8468 51.398 79.0897 51.4569 79.4457C51.5158 79.8021 51.2753 80.1384 50.9193 80.1973L50.856 80.2077L51.1414 81.927L51.204 81.9166C51.5639 81.8561 51.897 82.0986 51.956 82.4545C52.0149 82.8105 51.7744 83.1472 51.4184 83.2066L51.3511 83.2178C51.7503 85.9781 50.7213 88.6374 48.8221 90.4036C48.8164 90.4088 48.8104 90.414 48.8048 90.4192C48.4974 90.7034 48.1675 90.964 47.8171 91.1981C47.8059 91.2053 47.7951 91.2133 47.7842 91.2205C47.6155 91.3323 47.4419 91.4374 47.2639 91.5364C47.2439 91.5476 47.223 91.5584 47.203 91.5696C46.8482 91.7629 46.4762 91.9296 46.089 92.0683C46.0585 92.0791 46.0285 92.0904 45.998 92.1008C45.8132 92.1641 45.6252 92.221 45.434 92.2711C45.3987 92.2804 45.3627 92.2888 45.3274 92.2976C45.129 92.3465 44.9285 92.3906 44.7241 92.4247C44.5189 92.4588 44.3144 92.482 44.1104 92.4996C44.0739 92.5028 44.0378 92.5065 44.0013 92.5093C43.8037 92.5237 43.6069 92.5305 43.4109 92.5301C43.3788 92.5301 43.3467 92.5289 43.3147 92.5285C42.9022 92.5225 42.4949 92.484 42.0953 92.4155C42.0736 92.4119 42.0516 92.4082 42.0299 92.4042C41.8287 92.3678 41.6299 92.3241 41.433 92.2724C41.4202 92.2692 41.4074 92.2651 41.3942 92.2619C40.9853 92.1525 40.5868 92.011 40.2024 91.8402C40.1972 91.8378 40.192 91.8358 40.1872 91.8334C37.8221 90.7744 35.9922 88.5909 35.4791 85.8522L35.4586 85.8554C35.4226 85.8614 35.3861 85.8642 35.3508 85.8642C35.0366 85.8642 34.76 85.6374 34.7066 85.3175C34.6477 84.9615 34.8882 84.6248 35.2442 84.5655L35.2606 84.5627L34.9752 82.843L34.9588 82.8458C34.9227 82.8518 34.8862 82.8546 34.851 82.8546C34.5367 82.8546 34.2597 82.6277 34.2068 82.3078C34.1478 81.9515 34.3884 81.6151 34.7443 81.5558L34.7608 81.553L34.4264 79.5379C34.3338 79.3166 34.2453 79.0953 34.1599 78.8733C33.9041 78.2074 33.6796 77.5356 33.4772 76.8449C32.2145 72.5433 29.3985 69.0426 26.1215 66.0879C24.9337 65.1451 23.8586 64.0608 22.9234 62.8542C22.4556 62.2509 22.0231 61.6171 21.6287 60.9549C21.2342 60.2927 20.8778 59.6028 20.5632 58.8869C20.5563 58.8725 20.5503 58.8576 20.5439 58.8428C20.3651 58.4327 20.196 58.0174 20.0453 57.5913C19.9643 57.3664 19.8949 57.1363 19.8224 56.9078C19.7346 56.6268 19.6416 56.3491 19.5666 56.0616C19.4191 55.504 19.2916 54.938 19.1954 54.3588C18.995 53.1474 18.9132 51.9436 18.9429 50.7595Z" fill="black"/>
<path d="M22.6454 55.7492C22.6386 55.7348 22.6326 55.72 22.6261 55.7051C22.447 55.2951 22.2782 54.8798 22.1275 54.4537C22.0465 54.2288 21.9771 53.9987 21.9046 53.7702C21.8168 53.4892 21.7238 53.2114 21.6488 52.924C21.5013 52.3664 21.3739 51.8004 21.2776 51.2211C20.6343 47.3436 21.2155 43.5463 22.738 40.2236C23.4996 38.562 24.4965 37.0195 25.6931 35.6446C26.092 35.1864 26.5133 34.7467 26.9554 34.3278C27.8397 33.4896 28.8078 32.7336 29.8492 32.0741C30.8906 31.4147 32.005 30.8519 33.1823 30.4002C34.3597 29.9484 35.5999 29.6081 36.8923 29.3936C38.1846 29.1791 39.4686 29.101 40.7285 29.1479C41.9884 29.1948 43.225 29.368 44.4236 29.6558C45.6222 29.9436 46.7823 30.3464 47.8902 30.8543C48.4442 31.1081 48.9846 31.3879 49.5101 31.6929C51.0871 32.6073 52.5286 33.7457 53.7861 35.0722C56.3002 37.725 58.0768 41.1315 58.7202 45.009C58.8164 45.5883 58.8786 46.1655 58.9186 46.7407C58.9407 47.037 58.9419 47.33 58.9499 47.6242C58.9551 47.864 58.9639 48.1041 58.9599 48.3434C58.9551 48.7955 58.9291 49.2429 58.8922 49.6891C58.8906 49.7051 58.8898 49.7211 58.8882 49.7368C58.622 52.8538 57.5926 55.7953 55.9535 58.3472C53.8061 62.2018 52.2716 66.4241 52.4656 70.9033C52.5073 71.8617 52.5017 72.8013 52.4368 73.7586L44.624 75.055L44.323 75.1051L36.5103 76.4014C36.1399 75.5168 35.8308 74.6292 35.5606 73.7085C34.2979 69.4069 31.4819 65.9062 28.2049 62.9519C25.8282 61.0646 23.9041 58.613 22.6454 55.7492Z" fill="#FFCA0F"/>
<path d="M25.0765 55.2621C24.371 53.6294 23.9044 51.8849 23.7805 50.1115C23.6378 48.3393 23.8438 46.5535 24.2976 44.8538C24.7554 43.1522 25.4994 41.5375 26.4723 40.0884C26.9593 39.3641 27.5021 38.6794 28.0981 38.0473L29.0169 37.1245C29.3276 36.8222 29.6635 36.5468 30.0018 36.2771C32.7076 34.11 36.0937 32.8493 39.5603 32.6753C41.292 32.5767 43.0453 32.7631 44.7285 33.2317C45.5675 33.4706 46.4009 33.7541 47.1838 34.1481C47.575 34.3449 47.9767 34.5245 48.3619 34.7358C48.7443 34.9518 49.1191 35.1823 49.4831 35.4296C52.3978 37.4063 54.6201 40.4167 55.6339 43.8036C56.6449 47.1884 56.4917 50.8972 55.2186 54.1545C54.9059 54.9707 54.5167 55.7552 54.0774 56.5072C53.8621 56.884 53.5967 57.2379 53.3767 57.65C53.1442 58.0533 52.9381 58.4473 52.7321 58.8546C51.9143 60.4733 51.2277 62.1781 50.8012 63.9683C50.3879 65.7586 50.2063 67.623 50.4344 69.4785L50.743 72.143L50.8833 73.4651C50.9038 73.6835 50.9246 73.9036 50.9386 74.1169C50.9547 74.3265 50.9647 74.5558 50.9591 74.6965L51.4782 74.1249C49.1693 74.4821 46.8659 74.8741 44.5602 75.2513L41.1056 75.8402L37.6518 76.4358L38.3096 76.7994L38.2575 76.6567L38.2026 76.4791L38.0951 76.1087L37.8891 75.3423L37.4987 73.787L37.1118 72.2232C36.9743 71.6981 36.8585 71.1874 36.6821 70.635C35.9906 68.5217 34.8358 66.6036 33.4532 64.9248C32.7605 64.0834 32.0133 63.2937 31.2276 62.5493C30.836 62.1761 30.4319 61.8173 30.0191 61.461C29.5945 61.1251 29.1756 60.8012 28.7852 60.4368C28.0071 59.7096 27.286 58.9143 26.6667 58.0429C26.0458 57.173 25.5174 56.2382 25.0765 55.2621ZM24.9666 55.311C25.8257 57.288 27.0712 59.0975 28.6036 60.6268C28.9873 61.0076 29.3933 61.3732 29.7938 61.7243C30.1742 62.0923 30.5534 62.4687 30.9186 62.858C31.6502 63.634 32.3396 64.447 32.963 65.3036C34.212 67.0149 35.1717 68.9193 35.7241 70.9236C35.9726 71.9093 36.1618 73.0009 36.3971 74.0411L36.7467 75.6221L36.9367 76.4174C36.9723 76.5529 37.0048 76.6836 37.0465 76.8227L37.1082 77.0307L37.1924 77.2672L37.3503 77.7102L37.8502 77.6304L41.3112 77.0788L44.771 76.5204C47.0748 76.1328 49.3813 75.76 51.6822 75.3523L52.1873 75.2629L52.2009 74.7807C52.2098 74.4744 52.1881 74.2572 52.1693 74.0219C52.15 73.7894 52.1252 73.5653 52.1007 73.3392L51.9372 71.9983L51.5872 69.3422C51.3479 67.6498 51.4918 65.8977 51.849 64.2052C52.2046 62.5052 52.8159 60.8525 53.5659 59.2627C53.7511 58.867 53.9535 58.4654 54.1511 58.0858C54.3347 57.6997 54.5917 57.3241 54.8037 56.9156C55.2326 56.1063 55.6058 55.2677 55.8973 54.4019C57.0966 50.9425 57.0774 47.1339 56.0003 43.6897C54.9176 40.2363 52.698 37.169 49.7766 35.0168C49.413 34.7454 49.037 34.49 48.6518 34.2491C48.2637 34.013 47.8572 33.8082 47.4596 33.5861C46.6639 33.1411 45.8105 32.806 44.9438 32.5178C43.2057 31.9518 41.367 31.6736 39.527 31.6993C35.8471 31.7566 32.1789 33.1095 29.356 35.4858C26.528 37.8617 24.5854 41.1948 23.8382 44.7428C23.0862 48.2956 23.5071 52.0332 24.9666 55.311Z" fill="#EC6408"/>
<path d="M40.5963 76.0685C40.2888 71.3556 39.4968 66.2731 36.1207 62.9704C37.6548 63.0382 39.1961 62.208 39.9838 60.89C40.5859 59.8822 40.7306 58.6195 40.4111 57.4939C40.2063 56.7728 39.2779 55.2487 38.7379 56.7086C38.3034 57.8844 38.6185 59.5335 39.1821 60.6154C39.7806 61.7647 41.038 62.6774 42.314 62.4529L42.6996 62.3888C43.9799 62.1888 44.8751 60.9189 45.0703 59.6381C45.2539 58.4319 45.0198 56.7696 44.2289 55.7971C43.2464 54.5897 42.86 56.3318 42.8992 57.0806C42.9606 58.2491 43.5049 59.3976 44.4005 60.1568C45.5718 61.1498 47.2983 61.4376 48.7285 60.8784C46.6 65.0946 47.4915 70.1602 48.7229 74.72" stroke="#EC6408" stroke-width="0.601287" stroke-miterlimit="10" stroke-linecap="round"/>
<path opacity="0.4" d="M32.2244 54.4522C28.1499 53.68 25.6408 48.8648 26.6202 43.6971C27.5996 38.5294 31.6965 34.9661 35.771 35.7383C39.8454 36.5105 42.3545 41.3257 41.3751 46.4934C40.3958 51.6611 36.2988 55.2244 32.2244 54.4522Z" fill="white"/>
<path opacity="0.5" d="M29.2384 46.5155C29.1948 49.2438 30.8563 51.487 32.95 51.5259C35.0433 51.5647 36.7758 49.3845 36.8195 46.6562C36.8632 43.928 35.2016 41.6848 33.1079 41.6459C31.0146 41.607 29.2821 43.7873 29.2384 46.5155Z" fill="white"/>
<path opacity="0.5" d="M34.0762 38.2583C33.9295 39.242 34.4226 40.1456 35.1774 40.2763C35.9322 40.4069 36.6634 39.7159 36.8101 38.7321C36.9568 37.7484 36.4638 36.8449 35.7089 36.7142C34.9541 36.5835 34.2234 37.2746 34.0762 38.2583Z" fill="white"/>
<path d="M49.1095 27.5549L66.3047 17.0468L59.9363 6.5387L49.1095 27.5549Z" fill="#42307D"/>
<path d="M32.7295 24.9418L35.0762 1.64275L20.8233 0.334351L32.7295 24.9418Z" fill="#42307D"/>
<path d="M21.0879 34.8565L5.7222 21.3199L0.966017 29.0028L21.0879 34.8565Z" fill="#42307D"/>
<path d="M57.4844 31.9335L69.4785 28.4513V32.7072L57.4844 31.9335Z" fill="white"/>
<path d="M16.0859 41.9934L3.31821 43.5407L7.18689 48.5707L16.0859 41.9934Z" fill="white"/>
<path d="M42.3943 22.6482L47.4238 9.88045L42.3943 6.39819V22.6482Z" fill="white"/>
<path d="M26.5312 26.9041L19.1799 15.2969L16.4717 18.7791L26.5312 26.9041Z" fill="white"/>
<path d="M54.971 21.4876L61.9355 16.0712L59.8074 13.1694L54.971 21.4876Z" fill="#FFCA0F"/>
<path d="M31.7559 16.071L31.5626 5.81785L27.1131 5.04419L31.7559 16.071Z" fill="#FFCA0F"/>
<path d="M15.1191 31.3533L7.76781 26.517L6.02687 28.0647L15.1191 31.3533Z" fill="#FFCA0F"/>
<path d="M36.5021 76.4L37.5214 82.5439C38.257 86.9766 42.432 90.0107 46.7989 89.2864C51.1659 88.5616 54.1374 84.3422 53.4018 79.9091L52.3825 73.7651L36.5021 76.4Z" fill="#EC6408"/>
<path d="M52.8848 76.4144L36.925 79.0625" stroke="#EE7601" stroke-width="1.35029" stroke-miterlimit="10" stroke-linecap="round"/>
<path d="M53.3867 79.4238L37.427 82.0719" stroke="#EE7601" stroke-width="1.35029" stroke-miterlimit="10" stroke-linecap="round"/>
<path d="M51.3457 86.8146C50.1796 88.0829 48.6099 88.9856 46.7992 89.2863C44.9845 89.5873 43.2039 89.2378 41.6882 88.41C43.2231 88.3471 44.8771 88.1791 46.5923 87.8945C48.2864 87.6135 49.8874 87.2439 51.3457 86.8146Z" fill="#EE7601"/>
<path d="M78.9936 106.863C78.9312 106.863 78.8218 106.879 78.6657 106.91C78.5095 106.942 78.3533 106.957 78.1971 106.957C78.0409 106.988 77.9004 107.004 77.7754 107.004C77.6817 107.035 77.6505 107.051 77.6817 107.051H75.3859C74.8861 106.988 74.4644 106.942 74.1208 106.91C73.8084 106.91 73.5273 106.926 73.2774 106.957C73.215 106.957 73.1525 106.926 73.09 106.863C73.0275 106.832 72.9807 106.801 72.9495 106.77C72.9182 106.489 72.9026 106.067 72.9026 105.505C72.9338 104.942 72.9495 104.505 72.9495 104.193V103.537C73.0119 103.006 73.0275 102.537 72.9963 102.131C72.9651 101.694 72.9495 101.21 72.9495 100.679V99.6479C73.1056 98.9607 73.1369 98.2422 73.0432 97.4926C72.9807 96.7429 72.9495 96.0557 72.9495 95.431V83.4831C72.9495 83.1708 72.8714 83.0146 72.7152 83.0146C72.2779 82.9834 71.9343 82.9678 71.6844 82.9678C71.4345 82.9678 71.0909 82.9834 70.6536 83.0146C70.4662 83.0146 70.1382 82.9678 69.6697 82.874C69.2323 82.7803 68.9356 82.7491 68.7794 82.7803C68.6232 82.8428 68.2953 82.8428 67.7955 82.7803C67.3269 82.7179 67.0146 82.6866 66.8584 82.6866C66.7022 82.6866 66.5617 82.6866 66.4367 82.6866C66.3118 82.6554 66.1868 82.5929 66.0619 82.4992V79.5942C66.1868 79.5318 66.3742 79.5005 66.6241 79.5005C66.874 79.5005 67.1239 79.5005 67.3738 79.5005C67.6862 79.5005 67.9673 79.5005 68.2172 79.5005C68.4671 79.5005 68.7013 79.4849 68.92 79.4537C68.9825 79.4537 69.2011 79.4693 69.5759 79.5005C69.9508 79.5318 70.2631 79.563 70.513 79.5942C70.7004 79.5318 70.8879 79.5005 71.0753 79.5005C71.5438 79.4693 71.9811 79.4693 72.3872 79.5005C72.6683 79.5318 72.8714 79.5318 72.9963 79.5005C73.1212 79.4693 73.3087 79.4537 73.5586 79.4537H74.3082L75.5733 79.5474C75.8857 79.5474 76.198 79.5474 76.5104 79.5474C76.8227 79.5162 77.1351 79.5162 77.4475 79.5474C78.1659 79.6099 78.8531 79.6411 79.509 79.6411C80.1962 79.6099 80.7585 79.563 81.1958 79.5005C81.4145 79.5005 81.8049 79.5318 82.3672 79.5942C82.9294 79.6567 83.476 79.7036 84.0071 79.7348C84.3507 79.766 84.6318 79.766 84.8504 79.7348C85.0691 79.7036 85.2565 79.7036 85.4127 79.7348V81.8901C85.4127 82.015 85.4283 82.0931 85.4595 82.1244C85.4908 82.1556 85.4752 82.2962 85.4127 82.5461C85.3814 82.671 85.2565 82.7491 85.0378 82.7803C84.8192 82.7803 84.6474 82.7803 84.5224 82.7803C83.7103 82.9053 82.9606 82.9521 82.2734 82.9209C81.6175 82.8897 80.9771 82.874 80.3524 82.874C80.1025 82.874 79.8995 82.874 79.7433 82.874C79.6184 82.874 79.4622 82.8897 79.2748 82.9209V83.9985C79.2748 84.2484 79.2592 84.6233 79.2279 85.123C79.2279 85.6228 79.2279 86.0133 79.2279 86.2944C79.2279 86.4193 79.2279 86.5131 79.2279 86.5755C79.2279 86.638 79.2123 86.7317 79.1811 86.8567C79.1811 86.9504 79.1654 87.1065 79.1342 87.3252C79.103 87.5126 79.0405 87.7937 78.9468 88.1686C78.9468 88.6996 78.9468 89.1525 78.9468 89.5273C78.9468 89.9022 78.9468 90.2458 78.9468 90.5581C78.978 90.8705 78.9936 91.1829 78.9936 91.4952C78.9936 91.7763 78.9936 92.1199 78.9936 92.526V92.9946C78.8687 93.5256 78.8375 94.0566 78.8999 94.5876C78.9624 95.1186 78.9936 95.6496 78.9936 96.1806V106.863ZM93.7355 101.897C93.7355 101.959 93.7355 102.084 93.7355 102.272C93.7355 102.428 93.7355 102.615 93.7355 102.834C93.7355 103.021 93.7355 103.209 93.7355 103.396C93.7355 103.584 93.7355 103.724 93.7355 103.818C93.7355 104.661 93.7355 105.239 93.7355 105.551C93.7668 105.864 93.7824 106.239 93.7824 106.676C93.7824 106.77 93.7199 106.848 93.595 106.91C93.5013 107.004 93.3919 107.066 93.267 107.098H90.2683V106.582L90.034 103.256C90.034 102.662 90.0184 102.084 89.9872 101.522C89.9872 100.96 89.9716 100.398 89.9403 99.8353V98.5702C89.9403 98.1329 89.9247 97.7112 89.8935 97.3051C89.8622 96.8678 89.8779 96.4305 89.9403 95.9932V94.4002C89.9403 93.8379 89.9247 93.2913 89.8935 92.7603C89.8935 92.198 89.8779 91.6514 89.8466 91.1204C89.8466 90.9642 89.8466 90.8393 89.8466 90.7456C89.8779 90.6206 89.8935 90.48 89.8935 90.3239C89.8935 89.6679 89.8779 89.0744 89.8466 88.5434C89.8466 88.0124 89.8466 87.497 89.8466 86.9972C89.8466 86.4662 89.8466 85.9196 89.8466 85.3573C89.8466 84.7951 89.831 84.1703 89.7998 83.4831V82.1712C89.7685 81.8276 89.7373 81.484 89.7061 81.1404C89.7061 80.7656 89.7061 80.4064 89.7061 80.0628V79.9222C89.7061 79.7973 89.7217 79.688 89.7529 79.5942C89.7842 79.563 89.956 79.5162 90.2683 79.4537C90.4245 79.4224 90.6275 79.4224 90.8774 79.4537C91.0961 79.5162 91.3616 79.5474 91.6739 79.5474C91.9863 79.5162 92.3299 79.5005 92.7047 79.5005C93.0171 79.5005 93.267 79.5318 93.4544 79.5942C93.6731 79.6567 93.7824 79.7192 93.7824 79.7817V87.0909C93.7511 87.3408 93.7355 87.5907 93.7355 87.8406C93.7668 88.0592 93.7668 88.2935 93.7355 88.5434C93.7043 88.887 93.6887 89.2306 93.6887 89.5742C93.7199 89.9178 93.7355 90.2614 93.7355 90.605V91.4015C93.7355 91.4952 93.7355 91.6045 93.7355 91.7295C93.7355 91.8232 93.7199 91.9325 93.6887 92.0575C93.6574 92.1199 93.6418 92.2449 93.6418 92.4323C93.6418 92.5885 93.6418 92.7603 93.6418 92.9477C93.6731 93.1351 93.6887 93.3225 93.6887 93.51C93.7199 93.6974 93.7355 93.8223 93.7355 93.8848C93.7668 94.7282 93.7511 95.2279 93.6887 95.3841C93.6574 95.5403 93.6418 95.6653 93.6418 95.759C93.6106 96.1963 93.6106 96.6336 93.6418 97.0709C93.7043 97.5082 93.7355 97.9455 93.7355 98.3828C93.7668 98.9763 93.7668 99.5698 93.7355 100.163C93.7355 100.726 93.7355 101.303 93.7355 101.897ZM110.356 90.8393C110.106 91.2766 109.857 91.6514 109.607 91.9638C109.388 92.2761 109.091 92.6197 108.716 92.9946C108.467 93.2132 108.17 93.4475 107.826 93.6974C107.483 93.916 107.139 94.1347 106.795 94.3533C106.452 94.572 106.124 94.7594 105.811 94.9156C105.53 95.0405 105.327 95.103 105.202 95.103C104.703 95.1655 104.218 95.2592 103.75 95.3841C103.313 95.4778 102.86 95.5247 102.391 95.5247C102.235 95.5872 102.048 95.6028 101.829 95.5715C101.61 95.5403 101.376 95.5247 101.126 95.5247H100.611C100.579 95.8995 100.548 96.3212 100.517 96.7898C100.486 97.2271 100.439 97.6956 100.376 98.1954C100.345 98.6952 100.298 99.1793 100.236 99.6479C100.205 100.085 100.189 100.491 100.189 100.866C100.158 101.397 100.095 101.944 100.002 102.506C99.9078 103.068 99.8766 103.568 99.9078 104.005C99.9078 104.13 99.8922 104.365 99.861 104.708C99.861 105.02 99.8454 105.348 99.8141 105.692C99.8141 106.036 99.7985 106.332 99.7673 106.582C99.736 106.832 99.7204 106.957 99.7204 106.957C99.5642 107.113 99.3456 107.191 99.0645 107.191C98.7833 107.191 98.5178 107.238 98.2679 107.332C97.9243 107.332 97.6276 107.348 97.3777 107.379C97.1278 107.41 96.8779 107.426 96.628 107.426C96.6593 107.051 96.6749 106.598 96.6749 106.067C96.6749 105.536 96.6749 104.974 96.6749 104.38C96.6749 103.787 96.6593 103.193 96.628 102.6C96.628 102.006 96.628 101.46 96.628 100.96C96.628 100.522 96.6593 100.038 96.7218 99.5073C96.7842 98.9763 96.7998 98.4609 96.7686 97.9611V94.2128C96.7998 93.9629 96.7998 93.6505 96.7686 93.2757C96.7374 92.8696 96.7218 92.5416 96.7218 92.2917C96.6593 91.4171 96.6437 90.5269 96.6749 89.6211C96.7374 88.7152 96.7374 87.9187 96.6749 87.2315C96.6124 86.7942 96.5812 86.3413 96.5812 85.8727C96.6124 85.4042 96.628 84.9512 96.628 84.5139C96.628 83.9205 96.6124 83.3426 96.5812 82.7803C96.5812 82.1868 96.5968 81.5777 96.628 80.953C96.628 80.6407 96.628 80.3283 96.628 80.0159C96.6593 79.7036 96.6593 79.4068 96.628 79.1257C96.7842 78.9695 96.956 78.8914 97.1434 78.8914C97.3309 78.8602 97.487 78.8446 97.612 78.8446C97.9868 78.7821 98.4241 78.7509 98.9239 78.7509C99.4237 78.7196 99.9391 78.7196 100.47 78.7509C101.032 78.7509 101.563 78.7665 102.063 78.7977C102.594 78.829 103.047 78.8758 103.422 78.9383C103.766 78.9695 104.125 79.032 104.5 79.1257C104.874 79.1882 105.28 79.2506 105.718 79.3131C106.093 79.3756 106.389 79.4381 106.608 79.5005C107.42 79.9378 108.139 80.4064 108.763 80.9062C109.388 81.4059 109.888 81.9838 110.263 82.6398C110.45 82.9209 110.622 83.2645 110.778 83.6706C110.965 84.0454 111.09 84.4827 111.153 84.9825V88.1217C111.09 88.4966 110.981 88.9495 110.825 89.4805C110.7 90.0115 110.544 90.4644 110.356 90.8393ZM105.39 89.1994C105.546 88.2623 105.562 87.3408 105.437 86.435C105.343 85.5291 105.218 84.8575 105.062 84.4202C105.031 84.3265 104.952 84.2016 104.828 84.0454C104.734 83.8892 104.593 83.7174 104.406 83.53C104.218 83.3426 104 83.1708 103.75 83.0146C103.531 82.8584 103.313 82.7491 103.094 82.6866L102.579 82.5929C101.704 82.343 100.954 82.2337 100.33 82.2649C100.33 82.5773 100.314 82.9053 100.283 83.2489C100.283 83.5612 100.283 83.8892 100.283 84.2328C100.283 84.8575 100.283 85.4823 100.283 86.107C100.283 86.7317 100.251 87.2783 100.189 87.7469C100.22 88.2779 100.236 88.7308 100.236 89.1057C100.267 89.4493 100.283 89.8866 100.283 90.4176C100.283 90.5738 100.267 90.7768 100.236 91.0267C100.236 91.2453 100.236 91.4796 100.236 91.7295C100.236 91.9481 100.236 92.1512 100.236 92.3386C100.236 92.526 100.251 92.6353 100.283 92.6666C100.626 92.7915 101.267 92.7759 102.204 92.6197C102.36 92.5885 102.641 92.5104 103.047 92.3855C103.484 92.2293 103.844 92.0106 104.125 91.7295C104.437 91.4171 104.687 91.0423 104.874 90.605C105.062 90.1364 105.234 89.6679 105.39 89.1994ZM123.496 78.5635C123.809 78.4385 124.277 78.4073 124.902 78.4697C125.527 78.5322 126.027 78.5635 126.401 78.5635C126.62 78.5635 126.901 78.5791 127.245 78.6103C127.62 78.6103 128.01 78.6415 128.416 78.704C128.822 78.7353 129.197 78.7665 129.541 78.7977C129.915 78.7977 130.197 78.7977 130.384 78.7977C130.665 78.7977 131.056 78.8133 131.555 78.8446C132.055 78.8446 132.43 78.907 132.68 79.032C132.805 79.0945 133.07 79.1569 133.476 79.2194C133.914 79.2506 134.179 79.2819 134.273 79.3131C134.429 79.3131 134.523 79.3287 134.554 79.36C134.585 79.36 134.663 79.4224 134.788 79.5474C134.788 79.8598 134.741 80.1565 134.648 80.4376C134.585 80.6875 134.554 80.9374 134.554 81.1873C134.335 81.1873 134.101 81.2029 133.851 81.2341C133.601 81.2654 133.383 81.2966 133.195 81.3279C132.883 81.3903 132.633 81.4216 132.446 81.4216C132.289 81.3903 132.008 81.3747 131.602 81.3747C131.227 81.3747 130.821 81.3903 130.384 81.4216C129.978 81.4528 129.603 81.484 129.259 81.5153C128.916 81.5465 128.619 81.5777 128.369 81.609C128.151 81.6402 128.026 81.6558 127.994 81.6558C127.651 81.7183 127.198 81.812 126.636 81.937C126.073 82.0619 125.496 82.2181 124.902 82.4055C124.309 82.5617 123.762 82.7491 123.262 82.9678C122.762 83.1864 122.419 83.4051 122.231 83.6237C121.95 84.0298 121.669 84.3578 121.388 84.6076C121.138 84.8263 120.951 85.1543 120.826 85.5916C120.763 85.7165 120.732 85.9352 120.732 86.2475C120.732 86.5287 120.732 86.841 120.732 87.1846C120.763 87.497 120.81 87.8094 120.873 88.1217C120.935 88.4341 121.013 88.6684 121.107 88.8245C121.357 89.1057 121.56 89.3868 121.716 89.6679C121.872 89.949 121.997 90.1208 122.091 90.1833C122.309 90.3082 122.575 90.4644 122.887 90.6518C123.231 90.8393 123.574 91.0111 123.918 91.1672C123.981 91.1985 124.168 91.2453 124.48 91.3078C124.824 91.339 125.214 91.4171 125.652 91.5421C125.902 91.6045 126.058 91.6514 126.12 91.6826C126.183 91.7139 126.323 91.7607 126.542 91.8232C126.698 91.8857 126.807 91.9325 126.87 91.9638C126.932 91.995 127.042 92.0419 127.198 92.1043C127.385 92.1668 127.588 92.2293 127.807 92.2917C128.057 92.323 128.197 92.3386 128.229 92.3386C128.479 92.3386 128.728 92.3855 128.978 92.4792C129.259 92.5416 129.525 92.5729 129.775 92.5729C130.212 92.6978 130.618 92.7915 130.993 92.854C131.368 92.9165 131.758 93.0883 132.164 93.3694C132.383 93.4319 132.617 93.51 132.867 93.6037C133.117 93.6974 133.32 93.7911 133.476 93.8848C133.57 93.9473 133.742 94.0566 133.992 94.2128C134.273 94.3377 134.554 94.4939 134.835 94.6813C135.116 94.8687 135.382 95.0718 135.632 95.2904C135.882 95.5091 136.038 95.6965 136.1 95.8527C136.413 96.3524 136.631 96.8678 136.756 97.3989C136.881 97.8986 136.944 98.414 136.944 98.945C136.944 99.1012 136.912 99.3043 136.85 99.5542C136.819 99.804 136.787 100.007 136.756 100.163L136.522 101.475C136.459 101.631 136.319 101.912 136.1 102.319C135.882 102.725 135.741 102.959 135.678 103.021C135.647 103.084 135.569 103.193 135.444 103.349C135.319 103.474 135.179 103.615 135.023 103.771C134.898 103.896 134.773 104.021 134.648 104.146C134.523 104.24 134.445 104.302 134.413 104.333C134.195 104.521 133.851 104.771 133.383 105.083C132.945 105.395 132.461 105.708 131.93 106.02C131.43 106.364 130.931 106.645 130.431 106.863C129.962 107.113 129.572 107.238 129.259 107.238C129.197 107.301 129.119 107.316 129.025 107.285C128.931 107.285 128.838 107.316 128.744 107.379C128.4 107.379 128.072 107.394 127.76 107.426C127.448 107.488 127.026 107.504 126.495 107.473C126.027 107.441 125.574 107.441 125.136 107.473C124.73 107.535 124.277 107.551 123.778 107.519C123.528 107.519 123.153 107.519 122.653 107.519C122.153 107.519 121.622 107.504 121.06 107.473C120.498 107.473 119.951 107.457 119.42 107.426C118.92 107.394 118.514 107.332 118.202 107.238C118.171 107.238 118.061 107.223 117.874 107.191C117.718 107.16 117.53 107.129 117.312 107.098C117.124 107.098 116.937 107.082 116.749 107.051C116.562 107.02 116.421 107.004 116.328 107.004C116.078 106.973 115.703 106.926 115.203 106.863C114.735 106.801 114.407 106.738 114.219 106.676C114.094 106.614 113.954 106.52 113.798 106.395C113.673 106.301 113.61 106.176 113.61 106.02C113.548 105.895 113.454 105.661 113.329 105.317C113.235 104.942 113.142 104.568 113.048 104.193C112.954 103.787 112.876 103.427 112.814 103.115C112.782 102.803 112.798 102.647 112.86 102.647C113.391 102.771 113.923 102.896 114.454 103.021C115.016 103.115 115.64 103.224 116.328 103.349C116.859 103.349 117.39 103.412 117.921 103.537C118.452 103.63 119.061 103.677 119.748 103.677C119.998 103.677 120.263 103.662 120.545 103.63C120.826 103.568 121.185 103.506 121.622 103.443C121.716 103.412 121.81 103.396 121.903 103.396C121.997 103.396 122.075 103.381 122.138 103.349C122.606 103.349 123.153 103.209 123.778 102.928C124.402 102.615 124.886 102.381 125.23 102.225C125.261 102.225 125.339 102.178 125.464 102.084C125.62 101.991 125.777 101.881 125.933 101.756C126.089 101.6 126.23 101.46 126.354 101.335C126.511 101.21 126.604 101.116 126.636 101.053L127.526 99.6947C127.588 99.5385 127.666 99.3667 127.76 99.1793C127.885 98.9607 127.979 98.7732 128.041 98.6171C128.229 98.1485 128.229 97.555 128.041 96.8366C127.854 96.6804 127.698 96.5086 127.573 96.3212C127.479 96.1338 127.338 95.9308 127.151 95.7121C126.995 95.4622 126.807 95.2748 126.589 95.1499C126.37 94.9937 126.136 94.8531 125.886 94.7282C125.449 94.572 125.043 94.4314 124.668 94.3065C124.293 94.1503 123.981 94.0722 123.731 94.0722C123.293 93.9473 122.934 93.8692 122.653 93.8379C122.403 93.8067 122.153 93.7286 121.903 93.6037C121.497 93.4787 121.138 93.4006 120.826 93.3694C120.545 93.3382 120.279 93.2444 120.029 93.0883C119.623 93.0883 119.264 93.0414 118.952 92.9477C118.67 92.8228 118.311 92.6978 117.874 92.5729C117.718 92.4792 117.546 92.3855 117.358 92.2917C117.171 92.198 117.031 92.1199 116.937 92.0575C116.499 91.7139 116.125 91.4328 115.812 91.2141C115.5 90.9954 115.172 90.6675 114.828 90.2302C114.516 89.8241 114.297 89.5586 114.172 89.4336C114.047 89.2775 113.891 89.0119 113.704 88.6371C113.641 88.4809 113.579 88.2779 113.516 88.028C113.454 87.7469 113.407 87.4814 113.376 87.2315C113.345 86.9504 113.313 86.7005 113.282 86.4818C113.282 86.2319 113.282 86.0601 113.282 85.9664C113.282 85.5604 113.298 85.2324 113.329 84.9825C113.36 84.7326 113.391 84.4671 113.423 84.186C113.454 83.9361 113.532 83.6706 113.657 83.3894C113.782 83.1083 113.923 82.874 114.079 82.6866C114.422 82.0619 114.813 81.6246 115.25 81.3747C115.687 81.0936 116.187 80.75 116.749 80.3439C116.874 80.2502 117.062 80.1409 117.312 80.0159C117.593 79.8598 117.874 79.7192 118.155 79.5942C118.467 79.4693 118.764 79.36 119.045 79.2663C119.326 79.1726 119.561 79.0945 119.748 79.032C119.998 79.032 120.217 79.0008 120.404 78.9383C120.591 78.8446 120.826 78.7977 121.107 78.7977C121.357 78.7977 121.544 78.7821 121.669 78.7509C121.825 78.7196 122.028 78.704 122.278 78.704C122.434 78.704 122.591 78.7196 122.747 78.7509C122.934 78.7509 123.184 78.6884 123.496 78.5635Z" fill="#07285B"/>
<path d="M62.8921 62.3502C62.8921 62.3682 62.955 62.3772 63.081 62.3772C63.2069 62.3592 63.3508 62.3502 63.5127 62.3502H66.535C66.6789 62.3502 66.8048 62.3233 66.9128 62.2693C67.0387 62.2153 67.1736 62.1883 67.3175 62.1883V62.0264C67.3535 61.8645 67.3805 61.6217 67.3985 61.2979C67.4165 60.974 67.4255 60.7312 67.4255 60.5693C67.4255 60.4253 67.4165 60.2814 67.3985 60.1375C67.3805 59.9756 67.3715 59.8227 67.3715 59.6788C67.3895 59.5349 67.3895 59.3999 67.3715 59.274C67.3535 59.1301 67.3445 58.9862 67.3445 58.8423V57.601C67.3445 57.547 67.3445 57.4301 67.3445 57.2502C67.3625 57.0523 67.3625 56.8544 67.3445 56.6565C67.3445 56.3687 67.3535 56.1348 67.3715 55.9549C67.3895 55.757 67.3805 55.4962 67.3445 55.1723C67.3625 55.1004 67.3625 55.0374 67.3445 54.9835C67.3265 54.9115 67.3175 54.8305 67.3175 54.7406C67.3175 54.7046 67.3086 54.6776 67.2906 54.6596C67.2906 54.6237 67.2906 54.5877 67.2906 54.5517C67.2906 54.4797 67.2906 54.4078 67.2906 54.3358C67.2906 54.2639 67.2996 54.1829 67.3175 54.093H70.2049C70.2948 54.1829 70.3398 54.2639 70.3398 54.3358C70.3578 54.3898 70.3668 54.4618 70.3668 54.5517C70.3668 54.8036 70.3578 55.0464 70.3398 55.2803C70.3398 55.4962 70.3398 55.703 70.3398 55.9009C70.3398 56.2247 70.3128 56.5755 70.2589 56.9533C70.2229 57.3131 70.2049 57.6909 70.2049 58.0867C70.2049 58.2306 70.2139 58.4105 70.2319 58.6264C70.2499 58.8423 70.2409 59.0401 70.2049 59.22C70.1509 59.6698 70.1149 60.1015 70.097 60.5153C70.097 60.9291 70.097 61.3428 70.097 61.7566C70.097 62.1164 70.1149 62.4852 70.1509 62.863C70.1869 63.2228 70.2049 63.5556 70.2049 63.8614C70.1689 63.9873 70.1509 64.2122 70.1509 64.536C70.1509 64.8418 70.1509 65.1746 70.1509 65.5344C70.1689 65.8942 70.1779 66.236 70.1779 66.5598C70.1959 66.8837 70.2049 67.1085 70.2049 67.2345V69.9869C69.8091 69.9869 69.4493 70.0049 69.1255 70.0409C68.8197 70.0948 68.5049 70.1218 68.1811 70.1218C68.0371 70.1218 67.9112 70.1218 67.8033 70.1218C67.7133 70.1398 67.5964 70.1938 67.4525 70.2837L67.3175 70.1218C67.3355 69.9959 67.3445 69.825 67.3445 69.6091C67.3445 69.3932 67.3355 69.1684 67.3175 68.9345C67.3175 68.6826 67.3175 68.4488 67.3175 68.2329C67.3175 68.017 67.3175 67.8461 67.3175 67.7202C67.3355 67.3064 67.3445 66.8927 67.3445 66.4789C67.3625 66.0471 67.3715 65.6244 67.3715 65.2106C67.3715 65.2286 67.3625 65.1836 67.3445 65.0757C67.3445 64.9678 67.3445 64.8508 67.3445 64.7249C67.3445 64.581 67.3355 64.4461 67.3175 64.3201C67.3175 64.1942 67.3175 64.1132 67.3175 64.0773C67.3175 64.0053 67.2906 63.9783 67.2366 63.9963C67.2006 64.0143 67.1466 64.0143 67.0747 63.9963C66.8768 63.9603 66.7149 63.9603 66.589 63.9963C66.463 64.0143 66.3101 64.0233 66.1302 64.0233C66.0223 64.0233 65.8874 64.0323 65.7255 64.0503C65.5635 64.0503 65.3926 64.0593 65.2127 64.0773C65.0508 64.0773 64.8889 64.0863 64.727 64.1042C64.5651 64.1222 64.4302 64.1312 64.3223 64.1312L63.1349 64.1582C63.045 64.1582 62.964 64.1582 62.8921 64.1582C62.8381 64.1402 62.7751 64.1402 62.7032 64.1582C62.6492 64.1582 62.6222 64.1942 62.6222 64.2662C62.6222 64.3021 62.6312 64.3291 62.6492 64.3471C62.6492 64.563 62.6582 64.7879 62.6762 65.0217C62.6942 65.2376 62.7032 65.4715 62.7032 65.7233V66.4519C62.7032 66.9196 62.6942 67.3784 62.6762 67.8281C62.6762 68.2779 62.6402 68.7366 62.5683 69.2043V69.9869C62.4783 70.0589 62.3884 70.0948 62.2984 70.0948C62.2264 70.1128 62.1185 70.1218 61.9746 70.1218C61.8307 70.1218 61.6508 70.1218 61.4349 70.1218C61.219 70.1398 61.0391 70.1938 60.8952 70.2837H60.1127C60.0227 70.2837 59.9418 70.2657 59.8698 70.2298C59.7978 70.2118 59.6809 70.1758 59.519 70.1218V68.2869C59.519 67.8371 59.51 67.5493 59.492 67.4234C59.492 67.2974 59.492 67.1985 59.492 67.1265C59.456 67.0366 59.447 66.9286 59.465 66.8027C59.483 66.6768 59.492 66.5868 59.492 66.5329C59.528 66.1551 59.528 65.7683 59.492 65.3725C59.474 64.9588 59.456 64.617 59.438 64.3471C59.4201 64.1852 59.4111 64.0323 59.4111 63.8884C59.4111 63.7265 59.4111 63.5646 59.4111 63.4026C59.4111 63.0968 59.4201 62.8 59.438 62.5122C59.474 62.2063 59.474 61.9005 59.438 61.5947C59.4021 61.1989 59.4111 60.8751 59.465 60.6232C59.483 60.5513 59.474 60.4253 59.438 60.2455C59.4021 60.0476 59.3841 59.8407 59.3841 59.6248C59.3841 59.337 59.3931 59.0761 59.4111 58.8423C59.429 58.6084 59.438 58.3835 59.438 58.1676C59.456 57.9518 59.465 57.7269 59.465 57.493C59.483 57.2592 59.483 56.9983 59.465 56.7105C59.465 56.6385 59.465 56.5216 59.465 56.3597C59.465 56.1798 59.465 55.9909 59.465 55.793C59.483 55.5951 59.492 55.4152 59.492 55.2533C59.51 55.0734 59.519 54.9475 59.519 54.8755C59.519 54.7136 59.501 54.5967 59.465 54.5247C59.429 54.4348 59.4111 54.3538 59.4111 54.2819V54.093H62.7032C62.7751 54.1649 62.8291 54.2369 62.8651 54.3088C62.8831 54.3448 62.8921 54.3718 62.8921 54.3898C62.9101 54.7496 62.9101 55.1004 62.8921 55.4422C62.8741 55.784 62.8561 56.1348 62.8381 56.4946C62.8381 56.9803 62.8471 57.457 62.8651 57.9248C62.9011 58.3925 62.928 58.8602 62.946 59.328C62.946 59.5798 62.937 59.8407 62.9191 60.1105C62.9191 60.3804 62.9191 60.6412 62.9191 60.8931C62.9191 61.1449 62.9101 61.4238 62.8921 61.7296C62.8741 62.0354 62.8741 62.2423 62.8921 62.3502ZM83.4356 54.4438C83.3636 54.6776 83.3456 54.9295 83.3816 55.1993C83.4176 55.4692 83.4356 55.73 83.4356 55.9819C83.3636 55.9819 83.2287 56.0089 83.0308 56.0628C82.8509 56.0988 82.68 56.1258 82.5181 56.1438C82.4461 56.1438 82.3652 56.1438 82.2752 56.1438C82.1853 56.1258 82.1133 56.1258 82.0594 56.1438L81.5467 56.2517H80.0355C79.6577 56.2697 79.3159 56.2787 79.0101 56.2787C78.7223 56.2607 78.3895 56.2517 78.0117 56.2517C77.9397 56.2517 77.8318 56.2607 77.6879 56.2787C77.5619 56.2967 77.472 56.2967 77.418 56.2787C77.418 56.3687 77.409 56.4406 77.391 56.4946C77.373 56.5486 77.364 56.6205 77.364 56.7105C77.382 56.7644 77.391 56.8994 77.391 57.1152C77.409 57.3311 77.418 57.574 77.418 57.8438C77.436 58.0957 77.445 58.3295 77.445 58.5454C77.463 58.7613 77.472 58.8962 77.472 58.9502V60.1645C77.472 60.3084 77.472 60.4253 77.472 60.5153C77.49 60.6052 77.517 60.7312 77.5529 60.8931H79.118C79.4059 60.8931 79.6757 60.9021 79.9276 60.9201C80.1794 60.9381 80.4583 60.9471 80.7641 60.9471C80.926 60.9471 81.1149 60.956 81.3308 60.974C81.5646 60.992 81.7445 60.983 81.8705 60.9471C81.8885 61.109 81.9064 61.2799 81.9244 61.4598C81.9424 61.6397 81.9514 61.8016 81.9514 61.9455V62.3772C81.8795 62.3772 81.7445 62.3862 81.5467 62.4042C81.3488 62.4222 81.1689 62.4402 81.007 62.4582H79.8736C79.5138 62.5122 79.181 62.5391 78.8752 62.5391C78.5694 62.5391 78.2275 62.5391 77.8498 62.5391C77.7778 62.5391 77.6879 62.5481 77.5799 62.5661C77.472 62.5841 77.391 62.5841 77.3371 62.5661V63.5646C77.3371 63.8164 77.3371 64.0773 77.3371 64.3471C77.355 64.617 77.391 64.8508 77.445 65.0487C77.445 65.3725 77.445 65.6784 77.445 65.9662C77.463 66.236 77.472 66.4879 77.472 66.7218V67.1805C77.508 67.1625 77.6159 67.1715 77.7958 67.2075C77.9937 67.2435 78.2275 67.2794 78.4974 67.3154C78.7672 67.3514 78.9921 67.3784 79.172 67.3964C79.3699 67.4144 79.5498 67.4503 79.7117 67.5043C79.8016 67.5403 79.9905 67.5673 80.2784 67.5853C80.5842 67.5853 80.7821 67.5853 80.872 67.5853C81.3218 67.6392 81.7625 67.6752 82.1943 67.6932C82.626 67.7112 83.0668 67.7382 83.5165 67.7742H84.488C84.5599 67.7742 84.6409 67.7652 84.7308 67.7472C84.8208 67.7112 84.8837 67.6932 84.9197 67.6932C85.0097 68.017 85.0547 68.3318 85.0547 68.6377C85.0726 68.9435 85.0816 69.2493 85.0816 69.5551C84.9377 69.6451 84.7578 69.6901 84.5419 69.6901C84.3261 69.6901 84.1192 69.6991 83.9213 69.717C83.7954 69.717 83.6604 69.7081 83.5165 69.6901C83.3726 69.6721 83.2287 69.6631 83.0848 69.6631C82.725 69.6811 82.2932 69.6811 81.7895 69.6631C81.3038 69.6451 80.881 69.6541 80.5212 69.6901H80.1165C79.9186 69.6541 79.6397 69.6271 79.2799 69.6091C78.9381 69.5911 78.6773 69.5821 78.4974 69.5821C78.2995 69.5641 77.9847 69.5641 77.5529 69.5821C77.1212 69.6181 76.4016 69.6451 75.3942 69.6631C75.3582 69.6631 75.2323 69.6631 75.0164 69.6631C74.8185 69.6631 74.5936 69.6631 74.3418 69.6631C74.1079 69.6811 73.883 69.6901 73.6671 69.6901C73.4693 69.7081 73.3523 69.717 73.3163 69.717C73.3163 69.3393 73.2894 68.9705 73.2354 68.6107C73.1994 68.2509 73.1814 67.9181 73.1814 67.6122C73.1814 67.4323 73.1724 67.2255 73.1544 66.9916C73.1365 66.7577 73.1454 66.5598 73.1814 66.3979C73.2174 65.8223 73.2264 65.2556 73.2084 64.6979C73.2084 64.1402 73.2084 63.5736 73.2084 62.9979C73.2084 62.872 73.1994 62.6471 73.1814 62.3233C73.1634 61.9994 73.1634 61.6936 73.1814 61.4058L73.1275 60.5693C73.1095 60.4433 73.1185 60.2185 73.1544 59.8947C73.2084 59.5528 73.2264 59.256 73.2084 59.0042C73.1904 58.5904 73.1724 58.2306 73.1544 57.9248C73.1365 57.601 73.1185 57.2232 73.1005 56.7914C73.0825 56.4136 73.0825 56.0448 73.1005 55.6851C73.1365 55.3073 73.1544 54.9475 73.1544 54.6057C73.1544 54.5157 73.1544 54.4438 73.1544 54.3898C73.1724 54.3178 73.2264 54.2459 73.3163 54.1739L74.6926 54.2279C74.9624 54.2459 75.2682 54.2459 75.61 54.2279C75.9698 54.2099 76.2847 54.2099 76.5545 54.2279C76.6265 54.2279 76.6894 54.2279 76.7434 54.2279C76.8154 54.2099 76.8873 54.2009 76.9593 54.2009C77.0132 54.2009 77.1302 54.2009 77.3101 54.2009C77.49 54.2009 77.6789 54.2009 77.8767 54.2009C78.0746 54.2009 78.2545 54.2009 78.4164 54.2009C78.5783 54.2009 78.6773 54.2099 78.7133 54.2279C78.7492 54.2459 78.8572 54.2639 79.0371 54.2819C79.217 54.2998 79.3519 54.3088 79.4419 54.3088C79.4958 54.3088 79.5768 54.3088 79.6847 54.3088C79.7927 54.2908 79.9006 54.2819 80.0085 54.2819C80.1345 54.2819 80.2514 54.2819 80.3593 54.2819C80.4673 54.2819 80.5482 54.2819 80.6022 54.2819C80.8001 54.3178 80.98 54.3358 81.1419 54.3358C81.3218 54.3178 81.5107 54.3178 81.7086 54.3358C81.7265 54.3358 81.8165 54.3448 81.9784 54.3628C82.1583 54.3628 82.3562 54.3718 82.5721 54.3898C82.7879 54.4078 82.9768 54.4258 83.1387 54.4438C83.3186 54.4438 83.4176 54.4438 83.4356 54.4438ZM86.7382 54.1199C86.9541 54.1379 87.2509 54.1379 87.6287 54.1199C88.0245 54.102 88.3933 54.102 88.7351 54.1199C89.0769 54.1199 89.3198 54.111 89.4637 54.093C89.6256 54.075 89.7605 54.066 89.8684 54.066C89.9944 54.066 90.1293 54.093 90.2732 54.1469V55.9009C90.2732 56.4046 90.2642 56.8274 90.2462 57.1692C90.2282 57.493 90.2103 57.7719 90.1923 58.0057C90.1743 58.2216 90.1563 58.4015 90.1383 58.5454C90.1203 58.6893 90.1113 58.8243 90.1113 58.9502V60.6502C90.1113 60.8121 90.1203 60.992 90.1383 61.1899C90.1563 61.3878 90.1563 61.5407 90.1383 61.6486C90.0843 61.7926 90.0753 61.9545 90.1113 62.1344C90.1293 62.2243 90.1383 62.3502 90.1383 62.5122C90.1383 62.6561 90.1383 62.809 90.1383 62.9709C90.1383 63.1328 90.1383 63.2857 90.1383 63.4296C90.1383 63.5736 90.1473 63.6815 90.1653 63.7534C90.1653 63.9333 90.1563 64.2122 90.1383 64.59C90.1383 64.9678 90.1293 65.3635 90.1113 65.7773C90.1113 66.1731 90.1023 66.5598 90.0843 66.9376C90.0843 67.3154 90.0933 67.5943 90.1113 67.7742H91.2986C91.4785 67.8461 91.6404 67.8731 91.7844 67.8551C91.9283 67.8191 92.0812 67.8371 92.2431 67.9091H93.8892C94.2849 67.999 94.6987 68.053 95.1304 68.071C95.5802 68.089 95.985 68.08 96.3448 68.044H97.4241C97.4421 68.08 97.4691 68.116 97.5051 68.1519C97.5231 68.1879 97.5411 68.2239 97.5591 68.2599C97.5771 68.2959 97.586 68.3318 97.586 68.3678C97.5681 68.4758 97.5591 68.6197 97.5591 68.7996C97.5591 68.9615 97.5591 69.1234 97.5591 69.2853C97.5591 69.4472 97.5501 69.5821 97.5321 69.6901C97.5141 69.816 97.4961 69.879 97.4781 69.879H96.1828C95.7331 69.8969 95.3463 69.9059 95.0225 69.9059C94.6987 69.9239 94.3749 69.9329 94.0511 69.9329H92.6479C92.36 69.861 92.0992 69.825 91.8653 69.825C91.6314 69.825 91.3886 69.825 91.1367 69.825H90.8399C90.696 69.825 90.5431 69.816 90.3812 69.798C90.2372 69.798 90.0843 69.807 89.9224 69.825C89.6706 69.825 89.3557 69.843 88.978 69.879C88.6002 69.9149 88.2674 69.9329 87.9795 69.9329H86.9001C86.8102 69.6811 86.7562 69.4472 86.7382 69.2313C86.7382 69.0334 86.7382 68.8535 86.7382 68.6916V67.3424C86.8282 67.1985 86.8462 67.0546 86.7922 66.9106C86.7562 66.7487 86.7382 66.5778 86.7382 66.3979L86.7922 64.7249C86.7562 64.3651 86.7472 64.0053 86.7652 63.6455C86.7832 63.2677 86.7922 62.8989 86.7922 62.5391C86.7742 62.4672 86.7652 62.3592 86.7652 62.2153C86.7652 62.0714 86.7652 61.9185 86.7652 61.7566C86.7652 61.5947 86.7652 61.4418 86.7652 61.2979C86.7652 61.1359 86.7562 61.01 86.7382 60.9201C86.7023 60.7402 86.7113 60.5783 86.7652 60.4343C86.7832 60.3264 86.7832 60.1735 86.7652 59.9756C86.7472 59.7777 86.7382 59.5978 86.7382 59.4359V54.1199ZM107.419 60.6232C107.275 60.8751 107.131 61.091 106.987 61.2709C106.862 61.4508 106.691 61.6486 106.475 61.8645C106.331 61.9905 106.16 62.1254 105.962 62.2693C105.764 62.3952 105.566 62.5212 105.368 62.6471C105.17 62.773 104.982 62.8809 104.802 62.9709C104.64 63.0429 104.523 63.0788 104.451 63.0788C104.163 63.1148 103.884 63.1688 103.614 63.2407C103.363 63.2947 103.102 63.3217 102.832 63.3217C102.742 63.3577 102.634 63.3667 102.508 63.3487C102.382 63.3307 102.247 63.3217 102.103 63.3217H101.806C101.788 63.5376 101.77 63.7804 101.752 64.0503C101.734 64.3021 101.707 64.572 101.671 64.8598C101.653 65.1477 101.626 65.4265 101.591 65.6963C101.573 65.9482 101.564 66.1821 101.564 66.3979C101.546 66.7038 101.51 67.0186 101.456 67.3424C101.402 67.6662 101.384 67.9541 101.402 68.2059C101.402 68.2779 101.393 68.4128 101.375 68.6107C101.375 68.7906 101.366 68.9795 101.348 69.1774C101.348 69.3752 101.339 69.5461 101.321 69.6901C101.303 69.834 101.294 69.9059 101.294 69.9059C101.204 69.9959 101.078 70.0409 100.916 70.0409C100.754 70.0409 100.601 70.0678 100.457 70.1218C100.259 70.1218 100.088 70.1308 99.9445 70.1488C99.8005 70.1668 99.6566 70.1758 99.5127 70.1758C99.5307 69.9599 99.5397 69.6991 99.5397 69.3932C99.5397 69.0874 99.5397 68.7636 99.5397 68.4218C99.5397 68.08 99.5307 67.7382 99.5127 67.3964C99.5127 67.0546 99.5127 66.7397 99.5127 66.4519C99.5127 66.2001 99.5307 65.9212 99.5667 65.6154C99.6027 65.3096 99.6116 65.0127 99.5937 64.7249V62.5661C99.6116 62.4222 99.6116 62.2423 99.5937 62.0264C99.5757 61.7926 99.5667 61.6037 99.5667 61.4598C99.5307 60.956 99.5217 60.4433 99.5397 59.9216C99.5757 59.3999 99.5757 58.9412 99.5397 58.5454C99.5037 58.2936 99.4857 58.0327 99.4857 57.7629C99.5037 57.493 99.5127 57.2322 99.5127 56.9803C99.5127 56.6385 99.5037 56.3057 99.4857 55.9819C99.4857 55.6401 99.4947 55.2893 99.5127 54.9295C99.5127 54.7496 99.5127 54.5697 99.5127 54.3898C99.5307 54.2099 99.5307 54.039 99.5127 53.8771C99.6027 53.7871 99.7016 53.7422 99.8095 53.7422C99.9175 53.7242 100.007 53.7152 100.079 53.7152C100.295 53.6792 100.547 53.6612 100.835 53.6612C101.123 53.6432 101.42 53.6432 101.725 53.6612C102.049 53.6612 102.355 53.6702 102.643 53.6882C102.949 53.7062 103.21 53.7332 103.425 53.7691C103.623 53.7871 103.83 53.8231 104.046 53.8771C104.262 53.9131 104.496 53.949 104.748 53.985C104.964 54.021 105.134 54.057 105.26 54.093C105.728 54.3448 106.142 54.6147 106.502 54.9025C106.862 55.1903 107.149 55.5231 107.365 55.9009C107.473 56.0628 107.572 56.2607 107.662 56.4946C107.77 56.7105 107.842 56.9623 107.878 57.2502V59.0581C107.842 59.274 107.779 59.5349 107.689 59.8407C107.617 60.1465 107.527 60.4074 107.419 60.6232ZM104.559 59.6788C104.649 59.1391 104.658 58.6084 104.586 58.0867C104.532 57.565 104.46 57.1782 104.37 56.9263C104.352 56.8724 104.307 56.8004 104.235 56.7105C104.181 56.6205 104.1 56.5216 103.992 56.4136C103.884 56.3057 103.758 56.2068 103.614 56.1168C103.488 56.0269 103.363 55.9639 103.237 55.9279L102.94 55.8739C102.436 55.73 102.004 55.6671 101.644 55.6851C101.644 55.8649 101.635 56.0538 101.618 56.2517C101.618 56.4316 101.618 56.6205 101.618 56.8184C101.618 57.1782 101.618 57.538 101.618 57.8978C101.618 58.2576 101.6 58.5724 101.564 58.8423C101.582 59.1481 101.591 59.4089 101.591 59.6248C101.609 59.8227 101.618 60.0745 101.618 60.3804C101.618 60.4703 101.609 60.5873 101.591 60.7312C101.591 60.8571 101.591 60.992 101.591 61.1359C101.591 61.2619 101.591 61.3788 101.591 61.4867C101.591 61.5947 101.6 61.6576 101.618 61.6756C101.815 61.7476 102.184 61.7386 102.724 61.6486C102.814 61.6307 102.976 61.5857 103.21 61.5137C103.461 61.4238 103.668 61.2979 103.83 61.1359C104.01 60.956 104.154 60.7402 104.262 60.4883C104.37 60.2185 104.469 59.9486 104.559 59.6788ZM113.233 61.082C113.161 61.1 113.062 61.109 112.936 61.109C112.828 61.109 112.738 61.118 112.666 61.1359L112.261 61.1629C112.225 61.1629 112.18 61.1719 112.127 61.1899C112.091 61.1899 112.055 61.1899 112.019 61.1899C112.055 61.4418 112.055 61.6666 112.019 61.8645C111.983 62.0624 111.974 62.3772 111.992 62.809C112.01 63.2407 111.992 63.6275 111.938 63.9693C111.884 64.3111 111.866 64.6889 111.884 65.1027C111.902 65.3545 111.902 65.6334 111.884 65.9392C111.866 66.245 111.839 66.4609 111.803 66.5868L111.722 68.5027V69.4202C111.524 69.4562 111.38 69.4742 111.29 69.4742C111.2 69.4742 111.11 69.4652 111.02 69.4472C110.93 69.4472 110.822 69.4472 110.696 69.4472C110.588 69.4472 110.418 69.4652 110.184 69.5012C109.932 69.5551 109.77 69.5821 109.698 69.5821C109.644 69.5821 109.572 69.5821 109.482 69.5821C109.482 69.4202 109.473 69.3213 109.455 69.2853C109.455 69.2493 109.464 69.1414 109.482 68.9615C109.464 68.8176 109.446 68.6197 109.428 68.3678C109.41 68.098 109.392 67.8191 109.374 67.5313C109.356 67.2255 109.347 66.9286 109.347 66.6408C109.347 66.335 109.356 66.0741 109.374 65.8582C109.374 65.7143 109.365 65.5434 109.347 65.3455C109.347 65.1477 109.338 64.9498 109.32 64.7519C109.302 64.6799 109.302 64.59 109.32 64.482C109.32 64.464 109.32 64.3201 109.32 64.0503C109.32 63.7624 109.32 63.4566 109.32 63.1328C109.32 62.809 109.32 62.5122 109.32 62.2423C109.32 61.9725 109.32 61.8196 109.32 61.7836C109.32 61.7296 109.311 61.6127 109.293 61.4328C109.275 61.2349 109.257 61.028 109.239 60.8121C109.239 60.5963 109.239 60.3984 109.239 60.2185C109.239 60.0386 109.239 59.9216 109.239 59.8677C109.257 59.5978 109.266 59.355 109.266 59.1391C109.284 58.9232 109.284 58.7163 109.266 58.5184C109.266 58.3205 109.257 58.1137 109.239 57.8978C109.221 57.6819 109.185 57.4211 109.131 57.1152C109.113 57.0433 109.104 56.9084 109.104 56.7105C109.122 56.4946 109.131 56.2697 109.131 56.0359C109.149 55.784 109.158 55.5591 109.158 55.3612C109.176 55.1454 109.185 55.0014 109.185 54.9295C109.185 54.8395 109.194 54.7586 109.212 54.6866C109.23 54.5967 109.221 54.4887 109.185 54.3628L109.293 54.1739H111.722C112.513 54.1739 113.053 54.1739 113.341 54.1739C113.647 54.1559 113.899 54.1559 114.096 54.1739C114.618 54.2099 115.077 54.2279 115.473 54.2279C115.886 54.2279 116.282 54.2099 116.66 54.1739H118.144C118.234 54.3178 118.252 54.4707 118.198 54.6327C118.162 54.7766 118.144 54.9205 118.144 55.0644V55.9819H117.982C117.802 55.9639 117.622 55.9909 117.442 56.0628C117.263 56.1168 117.083 56.1258 116.903 56.0898C116.705 56.0538 116.444 56.0538 116.12 56.0898C115.796 56.1258 115.536 56.1438 115.338 56.1438L113.287 56.2517C113.107 56.2517 112.927 56.2517 112.747 56.2517C112.567 56.2337 112.378 56.2427 112.18 56.2787C112.18 56.4406 112.18 56.5665 112.18 56.6565C112.198 56.7464 112.207 56.8814 112.207 57.0613C112.225 57.2592 112.225 57.493 112.207 57.7629C112.207 58.0327 112.216 58.2666 112.234 58.4645L112.342 59.1121C112.36 59.1121 112.423 59.1211 112.531 59.1391C112.639 59.1391 112.756 59.1391 112.882 59.1391C113.026 59.1391 113.152 59.1391 113.26 59.1391C113.368 59.1391 113.431 59.1391 113.449 59.1391C113.539 59.1211 113.611 59.1211 113.665 59.1391C113.737 59.1571 113.809 59.1661 113.881 59.1661L114.474 59.22C114.654 59.202 114.843 59.1931 115.041 59.1931C115.257 59.1751 115.437 59.1661 115.581 59.1661C115.617 59.1661 115.653 59.1661 115.688 59.1661C115.742 59.1481 115.787 59.1481 115.823 59.1661C115.859 59.1841 115.886 59.238 115.904 59.328C115.922 59.3999 115.922 59.4719 115.904 59.5439L115.931 59.8947C115.949 59.9666 115.949 60.0566 115.931 60.1645C115.913 60.2724 115.913 60.3624 115.931 60.4343L115.904 60.7312V60.8931C115.832 60.965 115.805 61.01 115.823 61.028C115.841 61.028 115.805 61.028 115.715 61.028C115.608 61.028 115.428 61.037 115.176 61.055C114.942 61.055 114.699 61.046 114.447 61.028L113.233 61.082ZM137.217 55.2803C137.217 55.4242 137.226 55.5052 137.244 55.5231C137.262 55.5411 137.253 55.6491 137.217 55.847V60.3264C137.217 60.6862 137.19 61.064 137.136 61.4598C137.082 61.8375 137.055 62.2063 137.055 62.5661C137.055 62.8899 137.037 63.1778 137.001 63.4296C136.965 63.6635 136.947 63.9064 136.947 64.1582C136.947 64.3021 136.911 64.527 136.839 64.8328C136.785 65.1387 136.713 65.4175 136.623 65.6694C136.552 65.7413 136.507 65.8403 136.489 65.9662C136.471 66.0921 136.417 66.236 136.327 66.3979C136.309 66.4339 136.246 66.5419 136.138 66.7218C136.03 66.8837 135.904 67.0546 135.76 67.2345C135.634 67.4144 135.517 67.5853 135.409 67.7472C135.301 67.8911 135.238 67.972 135.22 67.99C134.986 68.1879 134.798 68.3498 134.654 68.4758C134.528 68.5837 134.312 68.7006 134.006 68.8266C133.97 68.8625 133.871 68.8895 133.709 68.9075C133.547 68.9255 133.448 68.9525 133.412 68.9885C133.268 69.0604 133.089 69.1054 132.873 69.1234C132.675 69.1414 132.459 69.1953 132.225 69.2853H131.739C131.541 69.3213 131.335 69.3393 131.119 69.3393C130.921 69.3573 130.768 69.3662 130.66 69.3662C130.444 69.3662 130.174 69.3573 129.85 69.3393C129.545 69.3393 129.221 69.3303 128.879 69.3123C128.555 69.3123 128.231 69.3033 127.907 69.2853C127.584 69.2853 127.296 69.2853 127.044 69.2853C126.792 69.2853 126.522 69.2583 126.234 69.2043C125.965 69.1324 125.731 69.0604 125.533 68.9885C125.497 68.9525 125.425 68.9345 125.317 68.9345C125.209 68.9165 125.119 68.8895 125.047 68.8535C124.975 68.8176 124.858 68.7726 124.696 68.7186C124.552 68.6467 124.399 68.5837 124.238 68.5297C124.076 68.4578 123.923 68.3858 123.779 68.3138C123.653 68.2419 123.572 68.1879 123.536 68.1519C123.194 67.972 122.798 67.6842 122.349 67.2884C121.899 66.8927 121.53 66.371 121.242 65.7233C121.116 65.4535 120.99 65.2106 120.864 64.9947C120.739 64.7609 120.649 64.518 120.595 64.2662C120.541 64.0143 120.487 63.7624 120.433 63.5106C120.397 63.2407 120.361 62.9889 120.325 62.755C120.289 62.5571 120.28 62.3682 120.298 62.1883C120.316 62.0084 120.325 61.8016 120.325 61.5677V60.5962C120.307 60.4164 120.28 60.1825 120.244 59.8947C120.226 59.5888 120.253 59.364 120.325 59.22V54.9835C120.343 54.9655 120.388 54.9565 120.46 54.9565C120.55 54.9385 120.649 54.9205 120.757 54.9025C120.864 54.8845 120.972 54.8755 121.08 54.8755C121.188 54.8575 121.278 54.8485 121.35 54.8485C121.602 54.8485 121.827 54.8755 122.025 54.9295C122.241 54.9655 122.421 54.9835 122.565 54.9835C122.816 55.0194 123.05 55.0464 123.266 55.0644C123.5 55.0824 123.734 55.0554 123.968 54.9835C124.058 55.0554 124.103 55.1544 124.103 55.2803C124.121 55.3882 124.13 55.4782 124.13 55.5501C124.13 55.8739 124.121 56.1978 124.103 56.5216C124.085 56.8274 124.058 57.1782 124.022 57.574C124.022 57.8618 124.013 58.1946 123.995 58.5724C123.977 58.9502 123.968 59.319 123.968 59.6788V61.055C123.968 61.4508 123.968 61.8106 123.968 62.1344C123.986 62.4582 124.04 62.818 124.13 63.2138C124.13 63.2677 124.148 63.3937 124.184 63.5915C124.22 63.7714 124.265 63.9693 124.319 64.1852C124.372 64.4011 124.417 64.608 124.453 64.8058C124.507 65.0037 124.552 65.1297 124.588 65.1836C124.66 65.2556 124.723 65.3545 124.777 65.4805C124.831 65.5884 124.876 65.6963 124.912 65.8043C125.038 66.0741 125.218 66.29 125.452 66.4519C125.704 66.6138 125.956 66.7937 126.207 66.9916C126.405 67.1535 126.612 67.2884 126.828 67.3964C127.044 67.4863 127.296 67.5673 127.584 67.6392C127.62 67.6572 127.683 67.6662 127.773 67.6662C127.88 67.6662 127.979 67.6662 128.069 67.6662L128.771 67.7202C128.915 67.7382 129.068 67.7562 129.23 67.7742C129.41 67.7742 129.572 67.7562 129.715 67.7202L130.201 67.6122C130.219 67.6122 130.282 67.5943 130.39 67.5583C130.498 67.5043 130.606 67.4503 130.714 67.3964C130.84 67.3424 130.957 67.2974 131.065 67.2614C131.191 67.2075 131.272 67.1625 131.308 67.1265C131.613 66.9286 131.847 66.7397 132.009 66.5598C132.171 66.362 132.324 66.1101 132.468 65.8043C132.504 65.6963 132.567 65.5254 132.657 65.2916C132.747 65.0397 132.819 64.8688 132.873 64.7789C132.963 64.509 133.017 64.2662 133.035 64.0503C133.071 63.8344 133.106 63.6095 133.142 63.3757C133.142 63.2317 133.142 62.8809 133.142 62.3233C133.142 61.7656 133.16 60.956 133.196 59.8947C133.214 59.5169 133.223 59.1391 133.223 58.7613C133.223 58.3835 133.223 58.0057 133.223 57.6279C133.241 57.2322 133.241 56.8274 133.223 56.4136C133.205 55.9999 133.214 55.6221 133.25 55.2803H133.412C133.664 55.3522 133.925 55.3702 134.195 55.3343C134.483 55.2983 134.789 55.2803 135.112 55.2803H136.003C136.093 55.2803 136.228 55.2983 136.408 55.3343C136.606 55.3522 136.875 55.3343 137.217 55.2803ZM139.153 54.1199C139.369 54.1379 139.665 54.1379 140.043 54.1199C140.439 54.102 140.808 54.102 141.15 54.1199C141.491 54.1199 141.734 54.111 141.878 54.093C142.04 54.075 142.175 54.066 142.283 54.066C142.409 54.066 142.544 54.093 142.688 54.1469V55.9009C142.688 56.4046 142.679 56.8274 142.661 57.1692C142.643 57.493 142.625 57.7719 142.607 58.0057C142.589 58.2216 142.571 58.4015 142.553 58.5454C142.535 58.6893 142.526 58.8243 142.526 58.9502V60.6502C142.526 60.8121 142.535 60.992 142.553 61.1899C142.571 61.3878 142.571 61.5407 142.553 61.6486C142.499 61.7926 142.49 61.9545 142.526 62.1344C142.544 62.2243 142.553 62.3502 142.553 62.5122C142.553 62.6561 142.553 62.809 142.553 62.9709C142.553 63.1328 142.553 63.2857 142.553 63.4296C142.553 63.5736 142.562 63.6815 142.58 63.7534C142.58 63.9333 142.571 64.2122 142.553 64.59C142.553 64.9678 142.544 65.3635 142.526 65.7773C142.526 66.1731 142.517 66.5598 142.499 66.9376C142.499 67.3154 142.508 67.5943 142.526 67.7742H143.713C143.893 67.8461 144.055 67.8731 144.199 67.8551C144.343 67.8191 144.496 67.8371 144.658 67.9091H146.304C146.699 67.999 147.113 68.053 147.545 68.071C147.995 68.089 148.399 68.08 148.759 68.044H149.839C149.857 68.08 149.884 68.116 149.92 68.1519C149.938 68.1879 149.956 68.2239 149.973 68.2599C149.991 68.2959 150 68.3318 150 68.3678C149.982 68.4758 149.973 68.6197 149.973 68.7996C149.973 68.9615 149.973 69.1234 149.973 69.2853C149.973 69.4472 149.964 69.5821 149.947 69.6901C149.929 69.816 149.911 69.879 149.893 69.879H148.597C148.148 69.8969 147.761 69.9059 147.437 69.9059C147.113 69.9239 146.789 69.9329 146.465 69.9329H145.062C144.774 69.861 144.514 69.825 144.28 69.825C144.046 69.825 143.803 69.825 143.551 69.825H143.254C143.11 69.825 142.957 69.816 142.796 69.798C142.652 69.798 142.499 69.807 142.337 69.825C142.085 69.825 141.77 69.843 141.392 69.879C141.015 69.9149 140.682 69.9329 140.394 69.9329H139.315C139.225 69.6811 139.171 69.4472 139.153 69.2313C139.153 69.0334 139.153 68.8535 139.153 68.6916V67.3424C139.243 67.1985 139.261 67.0546 139.207 66.9106C139.171 66.7487 139.153 66.5778 139.153 66.3979L139.207 64.7249C139.171 64.3651 139.162 64.0053 139.18 63.6455C139.198 63.2677 139.207 62.8989 139.207 62.5391C139.189 62.4672 139.18 62.3592 139.18 62.2153C139.18 62.0714 139.18 61.9185 139.18 61.7566C139.18 61.5947 139.18 61.4418 139.18 61.2979C139.18 61.1359 139.171 61.01 139.153 60.9201C139.117 60.7402 139.126 60.5783 139.18 60.4343C139.198 60.3264 139.198 60.1735 139.18 59.9756C139.162 59.7777 139.153 59.5978 139.153 59.4359V54.1199Z" fill="#FFCA0F"/>
<path d="M76.5776 104.448C76.5152 104.448 76.4058 104.464 76.2497 104.495C76.0935 104.526 75.9373 104.542 75.7811 104.542C75.6249 104.573 75.4844 104.589 75.3594 104.589C75.2657 104.62 75.2345 104.636 75.2657 104.636H72.9699C72.4701 104.573 72.0484 104.526 71.7048 104.495C71.3924 104.495 71.1113 104.511 70.8614 104.542C70.7989 104.542 70.7365 104.511 70.674 104.448C70.6115 104.417 70.5647 104.386 70.5334 104.355C70.5022 104.073 70.4866 103.652 70.4866 103.089C70.5178 102.527 70.5334 102.09 70.5334 101.778V101.122C70.5959 100.591 70.6115 100.122 70.5803 99.716C70.5491 99.2787 70.5334 98.7945 70.5334 98.2635V97.2327C70.6896 96.5455 70.7209 95.8271 70.6271 95.0774C70.5647 94.3277 70.5334 93.6405 70.5334 93.0158V81.068C70.5334 80.7556 70.4553 80.5994 70.2992 80.5994C69.8619 80.5682 69.5183 80.5526 69.2684 80.5526C69.0185 80.5526 68.6749 80.5682 68.2376 80.5994C68.0502 80.5994 67.7222 80.5526 67.2536 80.4589C66.8163 80.3652 66.5196 80.3339 66.3634 80.3652C66.2072 80.4276 65.8792 80.4276 65.3795 80.3652C64.9109 80.3027 64.5986 80.2715 64.4424 80.2715C64.2862 80.2715 64.1456 80.2715 64.0207 80.2715C63.8958 80.2402 63.7708 80.1778 63.6459 80.084V77.1791C63.7708 77.1166 63.9582 77.0854 64.2081 77.0854C64.458 77.0854 64.7079 77.0854 64.9578 77.0854C65.2701 77.0854 65.5513 77.0854 65.8012 77.0854C66.051 77.0854 66.2853 77.0698 66.504 77.0385C66.5664 77.0385 66.7851 77.0541 67.1599 77.0854C67.5348 77.1166 67.8471 77.1478 68.097 77.1791C68.2844 77.1166 68.4718 77.0854 68.6593 77.0854C69.1278 77.0541 69.5651 77.0541 69.9712 77.0854C70.2523 77.1166 70.4553 77.1166 70.5803 77.0854C70.7052 77.0541 70.8927 77.0385 71.1425 77.0385H71.8922L73.1573 77.1322C73.4696 77.1322 73.782 77.1322 74.0944 77.1322C74.4067 77.101 74.7191 77.101 75.0314 77.1322C75.7499 77.1947 76.4371 77.2259 77.093 77.2259C77.7802 77.1947 78.3425 77.1478 78.7798 77.0854C78.9984 77.0854 79.3889 77.1166 79.9511 77.1791C80.5134 77.2416 81.06 77.2884 81.591 77.3196C81.9346 77.3509 82.2158 77.3509 82.4344 77.3196C82.6531 77.2884 82.8405 77.2884 82.9967 77.3196V79.4749C82.9967 79.5999 83.0123 79.678 83.0435 79.7092C83.0748 79.7405 83.0591 79.881 82.9967 80.1309C82.9654 80.2558 82.8405 80.3339 82.6218 80.3652C82.4032 80.3652 82.2314 80.3652 82.1064 80.3652C81.2943 80.4901 80.5446 80.537 79.8574 80.5057C79.2015 80.4745 78.5611 80.4589 77.9364 80.4589C77.6865 80.4589 77.4835 80.4589 77.3273 80.4589C77.2024 80.4589 77.0462 80.4745 76.8588 80.5057V81.5834C76.8588 81.8333 76.8431 82.2081 76.8119 82.7079C76.8119 83.2077 76.8119 83.5981 76.8119 83.8792C76.8119 84.0042 76.8119 84.0979 76.8119 84.1604C76.8119 84.2228 76.7963 84.3165 76.765 84.4415C76.765 84.5352 76.7494 84.6914 76.7182 84.91C76.687 85.0975 76.6245 85.3786 76.5308 85.7534C76.5308 86.2844 76.5308 86.7373 76.5308 87.1122C76.5308 87.487 76.5308 87.8306 76.5308 88.143C76.562 88.4553 76.5776 88.7677 76.5776 89.0801C76.5776 89.3612 76.5776 89.7048 76.5776 90.1109V90.5794C76.4527 91.1104 76.4215 91.6414 76.4839 92.1724C76.5464 92.7035 76.5776 93.2345 76.5776 93.7655V104.448ZM91.3195 99.4817C91.3195 99.5442 91.3195 99.6691 91.3195 99.8565C91.3195 100.013 91.3195 100.2 91.3195 100.419C91.3195 100.606 91.3195 100.794 91.3195 100.981C91.3195 101.168 91.3195 101.309 91.3195 101.403C91.3195 102.246 91.3195 102.824 91.3195 103.136C91.3507 103.449 91.3664 103.824 91.3664 104.261C91.3664 104.355 91.3039 104.433 91.179 104.495C91.0852 104.589 90.9759 104.651 90.851 104.683H87.8523V104.167L87.618 100.84C87.618 100.247 87.6024 99.6691 87.5712 99.1069C87.5712 98.5446 87.5556 97.9824 87.5243 97.4201V96.1551C87.5243 95.7177 87.5087 95.2961 87.4775 94.89C87.4462 94.4527 87.4618 94.0154 87.5243 93.5781V91.985C87.5243 91.4228 87.5087 90.8761 87.4775 90.3451C87.4775 89.7829 87.4618 89.2362 87.4306 88.7052C87.4306 88.549 87.4306 88.4241 87.4306 88.3304C87.4618 88.2054 87.4775 88.0649 87.4775 87.9087C87.4775 87.2527 87.4618 86.6593 87.4306 86.1282C87.4306 85.5972 87.4306 85.0818 87.4306 84.5821C87.4306 84.051 87.4306 83.5044 87.4306 82.9422C87.4306 82.3799 87.415 81.7552 87.3838 81.068V79.7561C87.3525 79.4125 87.3213 79.0689 87.29 78.7253C87.29 78.3504 87.29 77.9912 87.29 77.6476V77.5071C87.29 77.3821 87.3057 77.2728 87.3369 77.1791C87.3681 77.1478 87.5399 77.101 87.8523 77.0385C88.0085 77.0073 88.2115 77.0073 88.4614 77.0385C88.6801 77.101 88.9456 77.1322 89.2579 77.1322C89.5703 77.101 89.9139 77.0854 90.2887 77.0854C90.6011 77.0854 90.851 77.1166 91.0384 77.1791C91.257 77.2416 91.3664 77.304 91.3664 77.3665V84.6758C91.3351 84.9257 91.3195 85.1755 91.3195 85.4254C91.3507 85.6441 91.3507 85.8784 91.3195 86.1282C91.2883 86.4718 91.2727 86.8154 91.2727 87.159C91.3039 87.5026 91.3195 87.8462 91.3195 88.1898V88.9864C91.3195 89.0801 91.3195 89.1894 91.3195 89.3143C91.3195 89.408 91.3039 89.5174 91.2727 89.6423C91.2414 89.7048 91.2258 89.8297 91.2258 90.0171C91.2258 90.1733 91.2258 90.3451 91.2258 90.5325C91.257 90.72 91.2727 90.9074 91.2727 91.0948C91.3039 91.2822 91.3195 91.4072 91.3195 91.4696C91.3507 92.313 91.3351 92.8128 91.2727 92.969C91.2414 93.1251 91.2258 93.2501 91.2258 93.3438C91.1946 93.7811 91.1946 94.2184 91.2258 94.6557C91.2883 95.093 91.3195 95.5303 91.3195 95.9676C91.3507 96.5611 91.3507 97.1546 91.3195 97.7481C91.3195 98.3103 91.3195 98.8882 91.3195 99.4817ZM107.94 88.4241C107.69 88.8614 107.441 89.2362 107.191 89.5486C106.972 89.861 106.675 90.2046 106.3 90.5794C106.051 90.7981 105.754 91.0323 105.41 91.2822C105.067 91.5009 104.723 91.7195 104.379 91.9382C104.036 92.1568 103.708 92.3442 103.395 92.5004C103.114 92.6254 102.911 92.6878 102.786 92.6878C102.287 92.7503 101.802 92.844 101.334 92.969C100.897 93.0627 100.444 93.1095 99.9751 93.1095C99.8189 93.172 99.6315 93.1876 99.4129 93.1564C99.1942 93.1251 98.9599 93.1095 98.71 93.1095H98.1946C98.1634 93.4844 98.1322 93.906 98.1009 94.3746C98.0697 94.8119 98.0228 95.2804 97.9604 95.7802C97.9291 96.28 97.8823 96.7642 97.8198 97.2327C97.7886 97.67 97.773 98.0761 97.773 98.4509C97.7417 98.9819 97.6792 99.5286 97.5855 100.091C97.4918 100.653 97.4606 101.153 97.4918 101.59C97.4918 101.715 97.4762 101.949 97.445 102.293C97.445 102.605 97.4294 102.933 97.3981 103.277C97.3981 103.62 97.3825 103.917 97.3513 104.167C97.32 104.417 97.3044 104.542 97.3044 104.542C97.1482 104.698 96.9296 104.776 96.6485 104.776C96.3673 104.776 96.1018 104.823 95.8519 104.917C95.5083 104.917 95.2116 104.932 94.9617 104.964C94.7118 104.995 94.4619 105.011 94.212 105.011C94.2433 104.636 94.2589 104.183 94.2589 103.652C94.2589 103.121 94.2589 102.558 94.2589 101.965C94.2589 101.371 94.2433 100.778 94.212 100.185C94.212 99.591 94.212 99.0444 94.212 98.5446C94.212 98.1073 94.2433 97.6232 94.3057 97.0921C94.3682 96.5611 94.3838 96.0457 94.3526 95.5459V91.7976C94.3838 91.5477 94.3838 91.2354 94.3526 90.8605C94.3214 90.4545 94.3057 90.1265 94.3057 89.8766C94.2433 89.002 94.2276 88.1117 94.2589 87.2059C94.3214 86.3 94.3214 85.5035 94.2589 84.8163C94.1964 84.379 94.1652 83.9261 94.1652 83.4576C94.1964 82.989 94.212 82.5361 94.212 82.0988C94.212 81.5053 94.1964 80.9274 94.1652 80.3652C94.1652 79.7717 94.1808 79.1626 94.212 78.5379C94.212 78.2255 94.212 77.9131 94.212 77.6008C94.2433 77.2884 94.2433 76.9917 94.212 76.7105C94.3682 76.5544 94.54 76.4763 94.7274 76.4763C94.9148 76.445 95.071 76.4294 95.196 76.4294C95.5708 76.3669 96.0081 76.3357 96.5079 76.3357C97.0077 76.3045 97.5231 76.3045 98.0541 76.3357C98.6163 76.3357 99.1473 76.3513 99.6471 76.3826C100.178 76.4138 100.631 76.4607 101.006 76.5231C101.349 76.5544 101.709 76.6168 102.084 76.7105C102.458 76.773 102.864 76.8355 103.302 76.898C103.677 76.9604 103.973 77.0229 104.192 77.0854C105.004 77.5227 105.723 77.9912 106.347 78.491C106.972 78.9908 107.472 79.5686 107.847 80.2246C108.034 80.5057 108.206 80.8493 108.362 81.2554C108.549 81.6302 108.674 82.0675 108.737 82.5673V85.7066C108.674 86.0814 108.565 86.5343 108.409 87.0653C108.284 87.5963 108.128 88.0493 107.94 88.4241ZM102.974 86.7842C103.13 85.8471 103.146 84.9257 103.021 84.0198C102.927 83.114 102.802 82.4424 102.646 82.0051C102.615 81.9114 102.536 81.7864 102.412 81.6302C102.318 81.4741 102.177 81.3023 101.99 81.1148C101.802 80.9274 101.584 80.7556 101.334 80.5994C101.115 80.4433 100.897 80.3339 100.678 80.2715L100.163 80.1778C99.2879 79.9279 98.5382 79.8185 97.9135 79.8498C97.9135 80.1621 97.8979 80.4901 97.8667 80.8337C97.8667 81.1461 97.8667 81.4741 97.8667 81.8177C97.8667 82.4424 97.8667 83.0671 97.8667 83.6918C97.8667 84.3165 97.8354 84.8632 97.773 85.3317C97.8042 85.8627 97.8198 86.3157 97.8198 86.6905C97.851 87.0341 97.8667 87.4714 97.8667 88.0024C97.8667 88.1586 97.851 88.3616 97.8198 88.6115C97.8198 88.8302 97.8198 89.0644 97.8198 89.3143C97.8198 89.533 97.8198 89.736 97.8198 89.9234C97.8198 90.1109 97.8354 90.2202 97.8667 90.2514C98.2103 90.3764 98.8506 90.3607 99.7877 90.2046C99.9439 90.1733 100.225 90.0952 100.631 89.9703C101.068 89.8141 101.428 89.5955 101.709 89.3143C102.021 89.002 102.271 88.6271 102.458 88.1898C102.646 87.7213 102.818 87.2527 102.974 86.7842ZM121.08 76.1483C121.393 76.0233 121.861 75.9921 122.486 76.0546C123.111 76.1171 123.611 76.1483 123.985 76.1483C124.204 76.1483 124.485 76.1639 124.829 76.1951C125.204 76.1951 125.594 76.2264 126 76.2889C126.406 76.3201 126.781 76.3513 127.125 76.3826C127.499 76.3826 127.781 76.3826 127.968 76.3826C128.249 76.3826 128.64 76.3982 129.139 76.4294C129.639 76.4294 130.014 76.4919 130.264 76.6168C130.389 76.6793 130.654 76.7418 131.06 76.8042C131.498 76.8355 131.763 76.8667 131.857 76.898C132.013 76.898 132.107 76.9136 132.138 76.9448C132.169 76.9448 132.247 77.0073 132.372 77.1322C132.372 77.4446 132.325 77.7413 132.232 78.0225C132.169 78.2723 132.138 78.5222 132.138 78.7721C131.919 78.7721 131.685 78.7877 131.435 78.819C131.185 78.8502 130.967 78.8815 130.779 78.9127C130.467 78.9752 130.217 79.0064 130.03 79.0064C129.873 78.9752 129.592 78.9595 129.186 78.9595C128.811 78.9595 128.405 78.9752 127.968 79.0064C127.562 79.0376 127.187 79.0689 126.843 79.1001C126.5 79.1313 126.203 79.1626 125.953 79.1938C125.735 79.2251 125.61 79.2407 125.578 79.2407C125.235 79.3031 124.782 79.3969 124.22 79.5218C123.657 79.6467 123.079 79.8029 122.486 79.9903C121.893 80.1465 121.346 80.3339 120.846 80.5526C120.346 80.7712 120.003 80.9899 119.815 81.2085C119.534 81.6146 119.253 81.9426 118.972 82.1925C118.722 82.4111 118.535 82.7391 118.41 83.1764C118.347 83.3014 118.316 83.52 118.316 83.8324C118.316 84.1135 118.316 84.4259 118.316 84.7695C118.347 85.0818 118.394 85.3942 118.457 85.7066C118.519 86.0189 118.597 86.2532 118.691 86.4094C118.941 86.6905 119.144 86.9716 119.3 87.2527C119.456 87.5339 119.581 87.7057 119.675 87.7681C119.893 87.8931 120.159 88.0493 120.471 88.2367C120.815 88.4241 121.158 88.5959 121.502 88.7521C121.565 88.7833 121.752 88.8302 122.064 88.8926C122.408 88.9239 122.798 89.002 123.236 89.1269C123.486 89.1894 123.642 89.2362 123.704 89.2675C123.767 89.2987 123.907 89.3456 124.126 89.408C124.282 89.4705 124.391 89.5174 124.454 89.5486C124.516 89.5798 124.626 89.6267 124.782 89.6892C124.969 89.7516 125.172 89.8141 125.391 89.8766C125.641 89.9078 125.781 89.9234 125.813 89.9234C126.063 89.9234 126.312 89.9703 126.562 90.064C126.843 90.1265 127.109 90.1577 127.359 90.1577C127.796 90.2827 128.202 90.3764 128.577 90.4388C128.952 90.5013 129.342 90.6731 129.748 90.9542C129.967 91.0167 130.201 91.0948 130.451 91.1885C130.701 91.2822 130.904 91.3759 131.06 91.4696C131.154 91.5321 131.326 91.6414 131.576 91.7976C131.857 91.9226 132.138 92.0787 132.419 92.2661C132.7 92.4536 132.966 92.6566 133.216 92.8753C133.466 93.0939 133.622 93.2813 133.684 93.4375C133.997 93.9373 134.215 94.4527 134.34 94.9837C134.465 95.4835 134.528 95.9989 134.528 96.5299C134.528 96.6861 134.496 96.8891 134.434 97.139C134.403 97.3889 134.371 97.5919 134.34 97.7481L134.106 99.06C134.043 99.2162 133.903 99.4973 133.684 99.9034C133.466 100.309 133.325 100.544 133.262 100.606C133.231 100.669 133.153 100.778 133.028 100.934C132.903 101.059 132.763 101.2 132.607 101.356C132.482 101.481 132.357 101.606 132.232 101.731C132.107 101.824 132.029 101.887 131.997 101.918C131.779 102.106 131.435 102.355 130.967 102.668C130.529 102.98 130.045 103.293 129.514 103.605C129.014 103.948 128.515 104.23 128.015 104.448C127.546 104.698 127.156 104.823 126.843 104.823C126.781 104.886 126.703 104.901 126.609 104.87C126.515 104.87 126.422 104.901 126.328 104.964C125.984 104.964 125.656 104.979 125.344 105.011C125.032 105.073 124.61 105.089 124.079 105.057C123.611 105.026 123.158 105.026 122.72 105.057C122.314 105.12 121.861 105.135 121.361 105.104C121.112 105.104 120.737 105.104 120.237 105.104C119.737 105.104 119.206 105.089 118.644 105.057C118.082 105.057 117.535 105.042 117.004 105.011C116.504 104.979 116.098 104.917 115.786 104.823C115.755 104.823 115.645 104.807 115.458 104.776C115.302 104.745 115.114 104.714 114.896 104.683C114.708 104.683 114.521 104.667 114.333 104.636C114.146 104.604 114.005 104.589 113.912 104.589C113.662 104.558 113.287 104.511 112.787 104.448C112.319 104.386 111.991 104.323 111.803 104.261C111.678 104.198 111.538 104.105 111.382 103.98C111.257 103.886 111.194 103.761 111.194 103.605C111.132 103.48 111.038 103.246 110.913 102.902C110.819 102.527 110.726 102.152 110.632 101.778C110.538 101.371 110.46 101.012 110.398 100.7C110.366 100.388 110.382 100.231 110.444 100.231C110.975 100.356 111.506 100.481 112.038 100.606C112.6 100.7 113.224 100.809 113.912 100.934C114.443 100.934 114.974 100.997 115.505 101.122C116.036 101.215 116.645 101.262 117.332 101.262C117.582 101.262 117.847 101.247 118.129 101.215C118.41 101.153 118.769 101.09 119.206 101.028C119.3 100.997 119.394 100.981 119.487 100.981C119.581 100.981 119.659 100.965 119.722 100.934C120.19 100.934 120.737 100.794 121.361 100.512C121.986 100.2 122.47 99.9659 122.814 99.8097C122.845 99.8097 122.923 99.7628 123.048 99.6691C123.204 99.5754 123.361 99.4661 123.517 99.3411C123.673 99.185 123.814 99.0444 123.938 98.9195C124.095 98.7945 124.188 98.7008 124.22 98.6383L125.11 97.2796C125.172 97.1234 125.25 96.9516 125.344 96.7642C125.469 96.5455 125.563 96.3581 125.625 96.2019C125.813 95.7334 125.813 95.1399 125.625 94.4214C125.438 94.2653 125.282 94.0935 125.157 93.906C125.063 93.7186 124.922 93.5156 124.735 93.2969C124.579 93.0471 124.391 92.8596 124.173 92.7347C123.954 92.5785 123.72 92.4379 123.47 92.313C123.033 92.1568 122.627 92.0163 122.252 91.8913C121.877 91.7351 121.565 91.657 121.315 91.657C120.877 91.5321 120.518 91.454 120.237 91.4228C119.987 91.3915 119.737 91.3134 119.487 91.1885C119.081 91.0636 118.722 90.9855 118.41 90.9542C118.129 90.923 117.863 90.8293 117.613 90.6731C117.207 90.6731 116.848 90.6263 116.536 90.5325C116.254 90.4076 115.895 90.2827 115.458 90.1577C115.302 90.064 115.13 89.9703 114.942 89.8766C114.755 89.7829 114.614 89.7048 114.521 89.6423C114.083 89.2987 113.709 89.0176 113.396 88.7989C113.084 88.5803 112.756 88.2523 112.412 87.815C112.1 87.4089 111.881 87.1434 111.756 87.0185C111.631 86.8623 111.475 86.5968 111.288 86.222C111.225 86.0658 111.163 85.8627 111.1 85.6128C111.038 85.3317 110.991 85.0662 110.96 84.8163C110.929 84.5352 110.897 84.2853 110.866 84.0667C110.866 83.8168 110.866 83.645 110.866 83.5513C110.866 83.1452 110.882 82.8172 110.913 82.5673C110.944 82.3174 110.975 82.0519 111.007 81.7708C111.038 81.5209 111.116 81.2554 111.241 80.9743C111.366 80.6932 111.506 80.4589 111.663 80.2715C112.006 79.6467 112.397 79.2094 112.834 78.9595C113.271 78.6784 113.771 78.3348 114.333 77.9288C114.458 77.835 114.646 77.7257 114.896 77.6008C115.177 77.4446 115.458 77.304 115.739 77.1791C116.051 77.0541 116.348 76.9448 116.629 76.8511C116.91 76.7574 117.145 76.6793 117.332 76.6168C117.582 76.6168 117.801 76.5856 117.988 76.5231C118.175 76.4294 118.41 76.3826 118.691 76.3826C118.941 76.3826 119.128 76.3669 119.253 76.3357C119.409 76.3045 119.612 76.2889 119.862 76.2889C120.018 76.2889 120.175 76.3045 120.331 76.3357C120.518 76.3357 120.768 76.2732 121.08 76.1483Z" fill="white"/>
</svg>
